<svg width="24" height="24" viewBox="0 0 24 24" fill="none" xmlns="http://www.w3.org/2000/svg">
<path d="M23.7296 22.4246L19.0021 17.6972C20.5824 15.8228 21.5388 13.4068 21.5388 10.7692C21.5388 4.83077 16.7079 0 10.7694 0C4.83084 0 0 4.83077 0 10.7692C0 16.7077 4.83084 21.5385 10.7694 21.5385C13.407 21.5385 15.823 20.5821 17.6975 19.0018L22.4249 23.7292C22.6047 23.9089 22.8409 24 23.0773 24C23.3136 24 23.5499 23.9102 23.7296 23.7292C24.0901 23.3687 24.0901 22.784 23.7296 22.4234V22.4246ZM10.7694 19.6923C5.8487 19.6923 1.84618 15.6898 1.84618 10.7692C1.84618 5.84862 5.8487 1.84615 10.7694 1.84615C15.6901 1.84615 19.6926 5.84862 19.6926 10.7692C19.6926 15.6898 15.6901 19.6923 10.7694 19.6923Z" fill="#2C353E"/>
</svg>
