<svg width="31" height="32" viewBox="0 0 31 32" fill="none" xmlns="http://www.w3.org/2000/svg">
<path d="M9.25 22H20.1448C26.8762 22 27.8999 17.7712 29.1415 11.6036C29.4997 9.82467 29.6788 8.9352 29.2481 8.34261C28.8175 7.75 27.992 7.75 26.3411 7.75H6.25" stroke="#2C353E" stroke-width="1.5" stroke-linecap="round"/>
<path d="M9.25 22L5.31809 3.27239C4.98422 1.93688 3.78427 1 2.40768 1H1" stroke="#2C353E" stroke-width="1.5" stroke-linecap="round"/>
<path d="M10.57 22H9.95285C7.90783 22 6.25 23.7269 6.25 25.8571C6.25 26.2121 6.5263 26.5 6.86714 26.5H23.5" stroke="#2C353E" stroke-width="1.5" stroke-linecap="round" stroke-linejoin="round"/>
<path d="M13 31C14.2426 31 15.25 29.9926 15.25 28.75C15.25 27.5074 14.2426 26.5 13 26.5C11.7574 26.5 10.75 27.5074 10.75 28.75C10.75 29.9926 11.7574 31 13 31Z" stroke="#2C353E" stroke-width="1.5"/>
<path d="M23.5 31C24.7426 31 25.75 29.9926 25.75 28.75C25.75 27.5074 24.7426 26.5 23.5 26.5C22.2574 26.5 21.25 27.5074 21.25 28.75C21.25 29.9926 22.2574 31 23.5 31Z" stroke="#2C353E" stroke-width="1.5"/>
</svg>
