<svg width="62" height="69" viewBox="0 0 62 69" fill="none" xmlns="http://www.w3.org/2000/svg">
<path d="M58.7409 12.1751H47.6502C45.5576 12.1751 43.8545 10.4722 43.8545 8.37949C43.8522 3.75897 40.0933 0 35.4726 0H26.5314C21.9107 0 18.152 3.75885 18.152 8.37949C18.152 10.4721 16.449 12.1751 14.3563 12.1751L12.6994 12.1749H3.26073C1.99562 12.1749 0.96875 13.2018 0.96875 14.4669C0.96875 15.732 1.99562 16.7589 3.26073 16.7589H5.84829V62.6009C5.84829 66.1008 8.69725 68.95 12.1974 68.95H49.8018C53.3016 68.95 56.1509 66.1011 56.1509 62.6009L56.1511 16.7589H58.7387C60.0038 16.7589 61.0307 15.732 61.0307 14.4669C61.0307 13.2018 60.0062 12.1749 58.7411 12.1749L58.7409 12.1751ZM22.7342 8.37973C22.7342 6.28712 24.4372 4.58409 26.5296 4.58409H35.4708C37.5634 4.58409 39.2664 6.28706 39.2664 8.37973C39.2664 9.75254 39.6308 11.0294 40.2176 12.1754H21.7809C22.3696 11.0315 22.7342 9.75254 22.7342 8.37973ZM51.5698 62.6013C51.5698 63.5754 50.779 64.3661 49.805 64.3661H12.1981C11.224 64.3661 10.4333 63.5754 10.4333 62.6013V16.7592H51.5655L51.5653 62.6013H51.5698Z" fill="#BF3D16"/>
<path d="M23.3986 21.7965C22.1335 21.7965 21.1066 22.8234 21.1066 24.0885V57.0356C21.1066 58.3007 22.1335 59.3276 23.3986 59.3276C24.6637 59.3276 25.6905 58.3007 25.6905 57.0356V24.0885C25.6905 22.8234 24.6639 21.7965 23.3986 21.7965Z" fill="#BF3D16"/>
<path d="M38.6583 21.7965C37.3932 21.7965 36.3663 22.8234 36.3663 24.0885V57.0356C36.3663 58.3007 37.3932 59.3276 38.6583 59.3276C39.9234 59.3276 40.9503 58.3007 40.9503 57.0356V24.0885C40.9503 22.8234 39.9258 21.7965 38.6583 21.7965Z" fill="#BF3D16"/>
</svg>
