<svg width="40" height="40" viewBox="0 0 40 40" fill="none" xmlns="http://www.w3.org/2000/svg">
<path d="M4.1665 20C4.1665 12.5361 4.1665 8.80411 6.48524 6.48536C8.80399 4.16663 12.5359 4.16663 19.9998 4.16663C27.4637 4.16663 31.1957 4.16663 33.5145 6.48536C35.8332 8.80411 35.8332 12.5361 35.8332 20C35.8332 27.4638 35.8332 31.1958 33.5145 33.5146C31.1957 35.8333 27.4637 35.8333 19.9998 35.8333C12.5359 35.8333 8.80399 35.8333 6.48524 33.5146C4.1665 31.1958 4.1665 27.4638 4.1665 20Z" stroke="white" stroke-width="1.5" stroke-linejoin="round"/>
<path d="M28.3332 14.5834C29.0235 14.5834 29.5832 14.0237 29.5832 13.3334C29.5832 12.643 29.0235 12.0834 28.3332 12.0834V14.5834ZM18.7498 35.8334C18.7498 36.5237 19.3095 37.0834 19.9998 37.0834C20.6902 37.0834 21.2498 36.5237 21.2498 35.8334H18.7498ZM16.6665 22.0834C15.9762 22.0834 15.4165 22.643 15.4165 23.3334C15.4165 24.0237 15.9762 24.5834 16.6665 24.5834V22.0834ZM24.9998 24.5834C25.6902 24.5834 26.2498 24.0237 26.2498 23.3334C26.2498 22.643 25.6902 22.0834 24.9998 22.0834V24.5834ZM28.3332 12.0834H26.6665V14.5834H28.3332V12.0834ZM18.7498 20V35.8334H21.2498V20H18.7498ZM26.6665 12.0834C25.1305 12.0834 23.8527 12.0807 22.8423 12.2166C21.796 12.3572 20.8513 12.6667 20.0923 13.4258L21.86 15.1936C22.0772 14.9764 22.4063 14.7977 23.1755 14.6943C23.9805 14.586 25.0598 14.5834 26.6665 14.5834V12.0834ZM21.2498 20C21.2498 18.3934 21.2525 17.314 21.3607 16.509C21.4642 15.7399 21.6428 15.4108 21.86 15.1936L20.0923 13.4258C19.3332 14.1849 19.0237 15.1296 18.883 16.1759C18.7472 17.1862 18.7498 18.464 18.7498 20H21.2498ZM16.6665 24.5834H24.9998V22.0834H16.6665V24.5834Z" fill="white"/>
</svg>
