<svg width="40" height="40" viewBox="0 0 40 40" fill="none" xmlns="http://www.w3.org/2000/svg">
<path d="M4.1665 20C4.1665 12.5361 4.1665 8.80411 6.48524 6.48536C8.80399 4.16663 12.5359 4.16663 19.9998 4.16663C27.4637 4.16663 31.1957 4.16663 33.5145 6.48536C35.8332 8.80411 35.8332 12.5361 35.8332 20C35.8332 27.4638 35.8332 31.1958 33.5145 33.5146C31.1957 35.8333 27.4637 35.8333 19.9998 35.8333C12.5359 35.8333 8.80399 35.8333 6.48524 33.5146C4.1665 31.1958 4.1665 27.4638 4.1665 20Z" stroke="white" stroke-width="1.5" stroke-linejoin="round"/>
<path d="M27.5 20C27.5 24.1422 24.1422 27.5 20 27.5C15.8579 27.5 12.5 24.1422 12.5 20C12.5 15.8579 15.8579 12.5 20 12.5C24.1422 12.5 27.5 15.8579 27.5 20Z" stroke="white" stroke-width="1.5"/>
<path d="M29.1795 10.8334H29.1646" stroke="white" stroke-width="2" stroke-linecap="round" stroke-linejoin="round"/>
</svg>
