<svg width="24" height="24" viewBox="0 0 24 24" fill="none" xmlns="http://www.w3.org/2000/svg">
<path d="M23.996 10.688C23.996 10.688 23.9955 10.6842 23.995 10.6824C23.9922 10.6547 23.988 10.6271 23.9824 10.5999C23.9824 10.598 23.9814 10.5961 23.981 10.5938C23.9468 10.4302 23.8666 10.2741 23.7396 10.1471L20.5492 6.95666C20.3753 6.78275 20.1475 6.69556 19.9192 6.69556C19.6909 6.69556 19.4636 6.78227 19.2896 6.95618C18.9418 7.304 18.9418 7.8679 19.2896 8.21572L20.9612 9.88728H14.8172C14.3255 9.88728 13.9266 10.2862 13.9266 10.7779C13.9266 11.2696 14.3255 11.6685 14.8172 11.6685H20.9574L19.2868 13.3391C18.939 13.687 18.939 14.2509 19.2868 14.5987C19.4607 14.7726 19.6885 14.8598 19.9163 14.8598C20.1441 14.8598 20.3719 14.7731 20.5459 14.5987L23.7183 11.4263C23.8317 11.3194 23.917 11.1839 23.9625 11.0302V11.0292C23.9704 11.0025 23.977 10.9753 23.9826 10.9477C23.9836 10.9439 23.9836 10.9397 23.9845 10.936C23.9887 10.9121 23.9925 10.8881 23.9948 10.8638C23.9967 10.8455 23.9967 10.8277 23.9976 10.8094C23.9976 10.7991 23.999 10.7892 23.999 10.7785V10.7775V10.7766C23.999 10.747 23.9976 10.7175 23.9943 10.688L23.996 10.688Z" fill="white"/>
<path d="M12.8784 2.48859C13.9462 2.72719 15.0366 3.71625 15.473 4.84259C15.6099 5.19555 15.9464 5.41165 16.3036 5.41165C16.4105 5.41165 16.5197 5.39196 16.6252 5.35118C17.0836 5.17353 17.3114 4.65742 17.1338 4.199C16.4766 2.50306 14.919 1.116 13.2582 0.748602L13.2469 0.746258C11.8749 0.461258 10.4545 0.321098 8.90532 0.318298C7.35517 0.321111 5.93493 0.460798 4.56053 0.746258L4.54881 0.748602C3.67599 0.941726 2.84069 1.4147 2.14881 2.05548C1.96974 2.1872 1.80897 2.35736 1.66505 2.55798C1.64161 2.58564 1.61911 2.61423 1.59801 2.64329C1.02379 3.33891 0.606614 4.15969 0.441134 5.01089C0.225514 6.09465 -0.0187055 8.90329 0.00097451 10.7779C-0.00980669 11.7838 0.0558185 13.0589 0.151913 14.1919C0.203475 14.9185 0.262069 15.5503 0.318788 15.9572C0.595828 18.007 1.85629 20.2804 3.25119 21.2466L3.25916 21.2522C4.23884 21.9122 5.25134 22.4443 6.35756 22.8793C7.461 23.3077 8.47396 23.5674 9.45356 23.6733L9.46153 23.6743C9.5234 23.6799 9.58574 23.6827 9.64715 23.6827C10.8903 23.6827 11.9931 22.5699 12.3381 20.9771V20.9766C12.6433 20.9279 12.9456 20.8731 13.2456 20.8107L13.2569 20.8084C14.9177 20.4409 16.4753 19.0538 17.1325 17.358C17.3102 16.8995 17.0823 16.3834 16.6239 16.2058C16.518 16.1645 16.4092 16.1453 16.3023 16.1453C15.9452 16.1453 15.6086 16.3614 15.4717 16.7144C15.0353 17.8403 13.945 18.8294 12.8771 19.0684C12.7693 19.0909 12.661 19.1115 12.5532 19.1321C12.646 17.9265 12.7163 16.3847 12.7074 15.1955C12.7215 13.3786 12.5476 10.5807 12.3934 9.46733C12.1163 7.41753 10.8559 5.14413 9.46098 4.17793L9.45301 4.1723C8.47425 3.51276 7.46129 2.98074 6.35461 2.54526C6.16008 2.46979 5.96837 2.39948 5.77899 2.33432H5.77758C6.76992 2.17729 7.78298 2.10182 8.90418 2.09994C10.3259 2.10228 11.6266 2.22978 12.8774 2.48948L12.8784 2.48859ZM8.45199 5.64459C8.89824 5.95537 9.38575 6.55069 9.78981 7.27959C10.2262 8.06663 10.5244 8.92819 10.6294 9.70539C10.6294 9.70727 10.6298 9.70914 10.6303 9.71102C10.7751 10.7573 10.9406 13.4868 10.9275 15.1808V15.2085C10.9354 16.2463 10.8783 17.6975 10.7784 18.9955C10.7775 19.0091 10.7765 19.0222 10.7756 19.0358C10.754 19.4291 10.6875 20.1992 10.6003 20.5887C10.5993 20.5925 10.5989 20.5958 10.5979 20.5995C10.4137 21.4489 9.92762 21.9012 9.64732 21.9012C9.64076 21.9012 9.6342 21.9012 9.62764 21.9008C8.81107 21.8108 7.95325 21.5881 7.00583 21.2206C6.02567 20.8348 5.12707 20.3633 4.25904 19.7787C3.81326 19.4675 3.32669 18.8726 2.92309 18.1451C2.4867 17.3581 2.18856 16.4965 2.08355 15.7193C2.08355 15.7175 2.08309 15.7156 2.08262 15.7137C2.0334 15.3598 1.97715 14.7593 1.9284 14.0665C1.92793 14.0581 1.92699 14.0501 1.92652 14.0417C1.82527 12.8506 1.77277 11.6679 1.78168 10.7971V10.7596C1.76246 8.90615 2.0109 6.24739 2.18762 5.35959C2.18809 5.35677 2.18856 5.35396 2.18903 5.35162C2.29684 4.7985 2.59215 4.21772 3.02107 3.71708C3.04029 3.69505 3.05857 3.67208 3.07685 3.64911C3.11669 3.64442 3.17529 3.6402 3.25638 3.6402C3.93842 3.6402 4.88998 3.91348 5.20076 4.01896C5.36951 4.07709 5.53966 4.13943 5.707 4.20459C6.68716 4.59037 7.58482 5.06147 8.4516 5.64505L8.45199 5.64459Z" fill="white"/>
</svg>
