<svg width="40" height="40" viewBox="0 0 40 40" fill="none" xmlns="http://www.w3.org/2000/svg">
<path d="M4.1665 20C4.1665 12.5361 4.1665 8.80411 6.48524 6.48536C8.80399 4.16663 12.5359 4.16663 19.9998 4.16663C27.4637 4.16663 31.1957 4.16663 33.5145 6.48536C35.8332 8.80411 35.8332 12.5361 35.8332 20C35.8332 27.4638 35.8332 31.1958 33.5145 33.5146C31.1957 35.8333 27.4637 35.8333 19.9998 35.8333C12.5359 35.8333 8.80399 35.8333 6.48524 33.5146C4.1665 31.1958 4.1665 27.4638 4.1665 20Z" stroke="white" stroke-width="1.5" stroke-linejoin="round"/>
<path d="M17.3232 19.6298C18.0065 19.7275 18.6398 19.2528 18.7375 18.5693C18.8353 17.886 18.3605 17.2528 17.6772 17.155L17.3232 19.6298ZM29.1668 17.0833C29.8572 17.0833 30.4168 16.5237 30.4168 15.8333C30.4168 15.143 29.8572 14.5833 29.1668 14.5833V17.0833ZM23.7502 10C23.7502 9.30965 23.1905 8.75 22.5002 8.75C21.8098 8.75 21.2502 9.30965 21.2502 10H23.7502ZM21.2502 24.1667C21.2502 26.698 19.1982 28.75 16.6668 28.75V31.25C20.5788 31.25 23.7502 28.0787 23.7502 24.1667H21.2502ZM16.6668 28.75C14.1355 28.75 12.0835 26.698 12.0835 24.1667H9.5835C9.5835 28.0787 12.7548 31.25 16.6668 31.25V28.75ZM12.0835 24.1667C12.0835 21.6353 14.1355 19.5833 16.6668 19.5833V17.0833C12.7548 17.0833 9.5835 20.2547 9.5835 24.1667H12.0835ZM16.6668 19.5833C16.8903 19.5833 17.1095 19.5992 17.3232 19.6298L17.6772 17.155C17.3465 17.1077 17.0092 17.0833 16.6668 17.0833V19.5833ZM29.1668 14.5833C27.8758 14.5833 26.4875 14.0513 25.4267 13.1654C24.3668 12.2803 23.7502 11.1472 23.7502 10H21.2502C21.2502 12.0744 22.356 13.858 23.8242 15.0842C25.2912 16.3095 27.2362 17.0833 29.1668 17.0833V14.5833ZM21.2502 10V24.1667H23.7502V10H21.2502Z" fill="white"/>
</svg>
