<svg width="32" height="32" viewBox="0 0 32 32" fill="none" xmlns="http://www.w3.org/2000/svg">
<path d="M16 31C24.2843 31 31 24.2843 31 16C31 7.71573 24.2843 1 16 1C7.71573 1 1 7.71573 1 16C1 24.2843 7.71573 31 16 31Z" stroke="#2C353E" stroke-width="1.5"/>
<path d="M9.25 23.5C12.7476 19.8367 19.2148 19.6642 22.75 23.5M19.7427 12.25C19.7427 14.321 18.0613 16 15.9872 16C13.9133 16 12.232 14.321 12.232 12.25C12.232 10.1789 13.9133 8.5 15.9872 8.5C18.0613 8.5 19.7427 10.1789 19.7427 12.25Z" stroke="#2C353E" stroke-width="1.5" stroke-linecap="round"/>
</svg>
