<svg width="40" height="40" viewBox="0 0 40 40" fill="none" xmlns="http://www.w3.org/2000/svg">
<path d="M20.0002 34.1667C23.0163 34.1667 25.9087 33.8687 28.5892 33.3224C31.9373 32.6399 33.6115 32.2985 35.1392 30.3344C36.6668 28.3702 36.6668 26.1155 36.6668 21.6059V18.3942C36.6668 13.8846 36.6668 11.6298 35.1392 9.66566C33.6115 7.70151 31.9373 7.36026 28.5892 6.67774C25.9087 6.13132 23.0163 5.83337 20.0002 5.83337C16.984 5.83337 14.0916 6.13132 11.4111 6.67774C8.06293 7.36026 6.38885 7.70151 4.86116 9.66566C3.3335 11.6298 3.3335 13.8846 3.3335 18.3942V21.6059C3.3335 26.1155 3.3335 28.3702 4.86116 30.3344C6.38885 32.2985 8.06293 32.6399 11.4111 33.3224C14.0916 33.8687 16.984 34.1667 20.0002 34.1667Z" stroke="white" stroke-width="1.5"/>
<path d="M26.6035 20.5215C26.3562 21.5311 25.0402 22.2563 22.4082 23.7068C19.5453 25.2841 18.114 26.073 16.9547 25.7691C16.562 25.6661 16.2003 25.4851 15.8966 25.2396C15 24.5148 15 23.0098 15 20C15 16.9901 15 15.4852 15.8966 14.7603C16.2003 14.5147 16.562 14.3338 16.9547 14.2309C18.114 13.927 19.5453 14.7157 22.4082 16.2932C25.0402 17.7436 26.3562 18.4688 26.6035 19.4785C26.6877 19.8221 26.6877 20.1778 26.6035 20.5215Z" stroke="white" stroke-width="1.5" stroke-linejoin="round"/>
</svg>
