<svg width="189" height="240" viewBox="0 0 189 240" fill="none" xmlns="http://www.w3.org/2000/svg">
<path d="M7.90655 238.589C4.97326 237.373 2.62695 235.027 1.41057 232.093L2.33429 231.71C1.79703 230.415 1.5 228.993 1.5 227.5V223.365H0.5V215.096H1.5V206.827H0.5V198.558H1.5V190.288H0.5V182.019H1.5V173.75H0.5V165.481H1.5V157.212H0.5V148.942H1.5V140.673H0.5V132.404H1.5V124.135H0.5V115.865H1.5V107.596H0.5V99.3269H1.5V91.0577H0.5V82.7885H1.5V74.5192H0.5V66.25H1.5V57.9808H0.5V49.7115H1.5V41.4423H0.5V33.1731H1.5V24.9039H0.5V16.6346H1.5V12.5C1.5 11.0067 1.79703 9.5852 2.33429 8.28961L1.41057 7.90655C2.62695 4.97327 4.97326 2.62695 7.90655 1.41057L8.2896 2.33429C9.5852 1.79703 11.0066 1.5 12.5 1.5H16.6V0.5H24.8V1.5H33V0.5H41.2V1.5H49.4V0.5H57.6V1.5H65.8V0.5H74V1.5H82.2V0.5H90.4V1.5H98.6V0.5H106.8V1.5H115V0.5H123.2V1.5H131.4V0.5H139.6V1.5H147.8V0.5H156V1.5H164.2V0.5H172.4V1.5H176.5C177.993 1.5 179.415 1.79703 180.71 2.33429L181.093 1.41057C184.027 2.62695 186.373 4.97326 187.589 7.90655L186.666 8.2896C187.203 9.5852 187.5 11.0067 187.5 12.5V16.6346H188.5V24.9039H187.5V33.1731H188.5V41.4423H187.5V49.7116H188.5V57.9808H187.5V66.25H188.5V74.5192H187.5V82.7884H188.5V91.0577H187.5V99.3269H188.5V107.596H187.5V115.865H188.5V124.135H187.5V132.404H188.5V140.673H187.5V148.942H188.5V157.212H187.5V165.481H188.5V173.75H187.5V182.019H188.5V190.288H187.5V198.558H188.5V206.827H187.5V215.096H188.5V223.365H187.5V227.5C187.5 228.993 187.203 230.415 186.666 231.71L187.589 232.093C186.373 235.027 184.027 237.373 181.093 238.589L180.71 237.666C179.415 238.203 177.993 238.5 176.5 238.5H172.4V239.5H164.2V238.5H156V239.5H147.8V238.5H139.6V239.5H131.4V238.5H123.2V239.5H115V238.5H106.8V239.5H98.6V238.5H90.4V239.5H82.2V238.5H74V239.5H65.8V238.5H57.6V239.5H49.4V238.5H41.2V239.5H33V238.5H24.8V239.5H16.6V238.5H12.5C11.0066 238.5 9.5852 238.203 8.2896 237.666L7.90655 238.589Z" fill="#FFE5DD" stroke="#D75C37" stroke-width="2" stroke-dasharray="8 8"/>
<path d="M114.88 94.2224C114.467 94.6513 114.023 95.0499 113.553 95.4149V106.185L108.813 97.9949C108.731 97.847 108.628 97.713 108.505 97.5974C108.128 97.1958 107.601 96.9702 107.05 96.9749C106.446 96.9778 105.875 97.2535 105.498 97.7249C105.417 97.8168 105.346 97.9174 105.288 98.0249L100.75 105.817L97.9524 100.98C97.5879 100.349 96.9146 99.9605 96.1862 99.9605C95.4577 99.9605 94.7845 100.349 94.4199 100.98L87.4299 113.122C81.2123 112.372 75.8423 113.947 71.9123 115.102L71.4248 115.245V91.147C71.4248 90.9481 71.5039 90.7573 71.6445 90.6167C71.7851 90.476 71.9759 90.397 72.1748 90.397H95.9424C95.8524 90.172 95.7774 89.9395 95.7024 89.707C95.5387 89.1976 95.4159 88.6759 95.3349 88.147H72.1749C71.3793 88.147 70.6162 88.4631 70.0537 89.0257C69.491 89.5882 69.1749 90.3514 69.1749 91.147V120.892C69.1749 121.687 69.491 122.451 70.0537 123.013C70.6162 123.576 71.3793 123.892 72.1749 123.892H112.795C113.591 123.892 114.354 123.576 114.916 123.013C115.479 122.451 115.795 121.687 115.795 120.892V93.1418C115.513 93.5205 115.207 93.8811 114.88 94.2218L114.88 94.2224ZM113.545 120.892C113.545 121.091 113.466 121.282 113.325 121.423C113.185 121.563 112.994 121.642 112.795 121.642H72.175C71.9761 121.642 71.7853 121.563 71.6447 121.423C71.5041 121.282 71.425 121.091 71.425 120.892V117.585L72.5425 117.262C76.2925 116.16 81.4073 114.652 87.1673 115.35C87.5658 115.448 87.9855 115.415 88.363 115.254C88.7405 115.093 89.0553 114.813 89.2599 114.457L96.2047 102.457L98.9947 107.25C99.3592 107.881 100.032 108.269 100.761 108.269C101.489 108.269 102.163 107.881 102.527 107.25L107.027 99.4274L113.5 110.625L113.545 120.892Z" fill="#D75C37"/>
<path d="M82.24 94.3575C80.8616 94.3575 79.5395 94.9052 78.5648 95.8799C77.5902 96.8546 77.0425 98.1766 77.0425 99.5551C77.0425 100.934 77.5901 102.256 78.5648 103.23C79.5395 104.205 80.8616 104.753 82.24 104.753C83.6184 104.753 84.9405 104.205 85.9152 103.23C86.8898 102.256 87.4375 100.934 87.4375 99.5551C87.4355 98.1773 86.8874 96.8563 85.913 95.8821C84.9388 94.9077 83.6178 94.3596 82.24 94.3576L82.24 94.3575ZM82.24 102.502C81.4583 102.502 80.7086 102.192 80.1558 101.639C79.603 101.086 79.2925 100.337 79.2925 99.5549C79.2925 98.7731 79.603 98.0235 80.1558 97.4707C80.7086 96.9179 81.4583 96.6074 82.24 96.6074C83.0217 96.6074 83.7714 96.9179 84.3242 97.4707C84.877 98.0235 85.1875 98.7731 85.1875 99.5549C85.1855 100.336 84.8744 101.085 84.322 101.637C83.7696 102.189 83.0211 102.5 82.24 102.502L82.24 102.502Z" fill="#D75C37"/>
<path d="M101.545 87.27C101.756 87.4806 102.042 87.599 102.34 87.599C102.638 87.599 102.924 87.4806 103.135 87.27L105.482 84.855V90.6302C105.482 91.032 105.697 91.4034 106.045 91.6044C106.393 91.8055 106.822 91.8055 107.17 91.6044C107.518 91.4034 107.732 91.032 107.732 90.6302V84.855L110.08 87.27C110.285 87.4951 110.573 87.6275 110.877 87.6368C111.182 87.6461 111.477 87.5314 111.696 87.319C111.914 87.1065 112.037 86.8147 112.036 86.51C112.036 86.2053 111.912 85.914 111.692 85.7024L107.417 81.27C107.205 81.0524 106.915 80.9296 106.611 80.9296C106.307 80.9296 106.016 81.0524 105.805 81.27L101.5 85.68C101.295 85.8969 101.185 86.1861 101.193 86.4844C101.202 86.7825 101.328 87.0652 101.545 87.27L101.545 87.27Z" fill="#D75C37"/>
<path d="M106.615 95.55C109.06 95.55 111.404 94.5789 113.133 92.8503C114.862 91.1215 115.833 88.7771 115.833 86.3323C115.833 83.8875 114.862 81.5431 113.133 79.8143C111.405 78.0857 109.06 77.1146 106.615 77.1146C104.17 77.1146 101.826 78.0857 100.097 79.8143C98.3687 81.5431 97.3976 83.8875 97.3976 86.3323C97.3996 88.7764 98.3713 91.1195 100.099 92.8479C101.828 94.576 104.171 95.5477 106.615 95.5498L106.615 95.55ZM106.615 79.3652C108.463 79.3652 110.235 80.0993 111.542 81.406C112.849 82.7125 113.583 84.4847 113.583 86.3328C113.583 88.1808 112.849 89.9529 111.542 91.2596C110.236 92.5663 108.463 93.3004 106.615 93.3004C104.767 93.3004 102.995 92.5663 101.688 91.2596C100.382 89.953 99.6477 88.1808 99.6477 86.3328C99.6497 84.4854 100.384 82.7145 101.691 81.4084C102.997 80.1023 104.768 79.3675 106.615 79.3654L106.615 79.3652Z" fill="#D75C37"/>
<path d="M13.7567 145.584C13.5967 145.584 13.4727 145.54 13.3847 145.452C13.3047 145.356 13.2647 145.228 13.2647 145.068V137.472C13.2647 137.304 13.3047 137.176 13.3847 137.088C13.4727 137 13.5967 136.956 13.7567 136.956C13.9167 136.956 14.0367 137 14.1167 137.088C14.2047 137.176 14.2487 137.304 14.2487 137.472V145.068C14.2487 145.228 14.2087 145.356 14.1287 145.452C14.0487 145.54 13.9247 145.584 13.7567 145.584ZM16.7187 145.584C16.5587 145.584 16.4387 145.54 16.3587 145.452C16.2787 145.364 16.2387 145.24 16.2387 145.08V140.076C16.2387 139.916 16.2787 139.796 16.3587 139.716C16.4387 139.628 16.5547 139.584 16.7067 139.584C16.8587 139.584 16.9747 139.628 17.0547 139.716C17.1427 139.796 17.1867 139.916 17.1867 140.076V141.132L17.0547 140.964C17.2067 140.516 17.4507 140.172 17.7867 139.932C18.1307 139.684 18.5387 139.56 19.0107 139.56C19.5067 139.56 19.9067 139.68 20.2107 139.92C20.5227 140.152 20.7307 140.516 20.8347 141.012H20.6547C20.7987 140.564 21.0547 140.212 21.4227 139.956C21.7987 139.692 22.2347 139.56 22.7307 139.56C23.1707 139.56 23.5307 139.644 23.8107 139.812C24.0987 139.98 24.3147 140.236 24.4587 140.58C24.6027 140.916 24.6747 141.344 24.6747 141.864V145.08C24.6747 145.24 24.6307 145.364 24.5427 145.452C24.4627 145.54 24.3427 145.584 24.1827 145.584C24.0307 145.584 23.9107 145.54 23.8227 145.452C23.7427 145.364 23.7027 145.24 23.7027 145.08V141.912C23.7027 141.376 23.6107 140.984 23.4267 140.736C23.2427 140.48 22.9307 140.352 22.4907 140.352C22.0107 140.352 21.6307 140.52 21.3507 140.856C21.0787 141.184 20.9427 141.632 20.9427 142.2V145.08C20.9427 145.24 20.8987 145.364 20.8107 145.452C20.7307 145.54 20.6107 145.584 20.4507 145.584C20.2987 145.584 20.1787 145.54 20.0907 145.452C20.0107 145.364 19.9707 145.24 19.9707 145.08V141.912C19.9707 141.376 19.8747 140.984 19.6827 140.736C19.4987 140.48 19.1907 140.352 18.7587 140.352C18.2787 140.352 17.8987 140.52 17.6187 140.856C17.3467 141.184 17.2107 141.632 17.2107 142.2V145.08C17.2107 145.416 17.0467 145.584 16.7187 145.584ZM26.9721 147.744C26.8121 147.744 26.6921 147.7 26.6121 147.612C26.5321 147.532 26.4921 147.412 26.4921 147.252V140.076C26.4921 139.916 26.5321 139.796 26.6121 139.716C26.6921 139.628 26.8081 139.584 26.9601 139.584C27.1201 139.584 27.2401 139.628 27.3201 139.716C27.4081 139.796 27.4521 139.916 27.4521 140.076V141.216L27.3201 141.048C27.4481 140.592 27.7001 140.232 28.0761 139.968C28.4601 139.696 28.9161 139.56 29.4441 139.56C29.9641 139.56 30.4161 139.684 30.8001 139.932C31.1921 140.172 31.4921 140.52 31.7001 140.976C31.9161 141.424 32.0241 141.96 32.0241 142.584C32.0241 143.2 31.9161 143.736 31.7001 144.192C31.4921 144.64 31.1961 144.988 30.8121 145.236C30.4281 145.484 29.9721 145.608 29.4441 145.608C28.9161 145.608 28.4641 145.476 28.0881 145.212C27.7121 144.94 27.4561 144.58 27.3201 144.132H27.4641V147.252C27.4641 147.412 27.4201 147.532 27.3321 147.612C27.2441 147.7 27.1241 147.744 26.9721 147.744ZM29.2401 144.828C29.6081 144.828 29.9241 144.74 30.1881 144.564C30.4601 144.388 30.6681 144.132 30.8121 143.796C30.9641 143.46 31.0401 143.056 31.0401 142.584C31.0401 141.856 30.8761 141.3 30.5481 140.916C30.2281 140.532 29.7921 140.34 29.2401 140.34C28.8801 140.34 28.5641 140.428 28.2921 140.604C28.0201 140.772 27.8081 141.024 27.6561 141.36C27.5121 141.688 27.4401 142.096 27.4401 142.584C27.4401 143.304 27.6041 143.86 27.9321 144.252C28.2601 144.636 28.6961 144.828 29.2401 144.828ZM35.9122 145.608C35.3442 145.608 34.8522 145.484 34.4362 145.236C34.0202 144.988 33.6962 144.64 33.4642 144.192C33.2402 143.736 33.1282 143.2 33.1282 142.584C33.1282 142.12 33.1922 141.704 33.3202 141.336C33.4482 140.96 33.6362 140.64 33.8842 140.376C34.1322 140.112 34.4242 139.912 34.7602 139.776C35.1042 139.632 35.4882 139.56 35.9122 139.56C36.4802 139.56 36.9722 139.684 37.3882 139.932C37.8042 140.18 38.1242 140.532 38.3482 140.988C38.5802 141.436 38.6962 141.968 38.6962 142.584C38.6962 143.048 38.6322 143.464 38.5042 143.832C38.3762 144.2 38.1882 144.52 37.9402 144.792C37.6922 145.056 37.3962 145.26 37.0522 145.404C36.7162 145.54 36.3362 145.608 35.9122 145.608ZM35.9122 144.828C36.2722 144.828 36.5882 144.74 36.8602 144.564C37.1322 144.388 37.3402 144.132 37.4842 143.796C37.6362 143.46 37.7122 143.056 37.7122 142.584C37.7122 141.856 37.5482 141.3 37.2202 140.916C36.9002 140.532 36.4642 140.34 35.9122 140.34C35.5442 140.34 35.2242 140.428 34.9522 140.604C34.6882 140.772 34.4802 141.024 34.3282 141.36C34.1842 141.688 34.1122 142.096 34.1122 142.584C34.1122 143.304 34.2762 143.86 34.6042 144.252C34.9322 144.636 35.3682 144.828 35.9122 144.828ZM40.6481 145.584C40.4881 145.584 40.3641 145.54 40.2761 145.452C40.1961 145.364 40.1561 145.24 40.1561 145.08V140.076C40.1561 139.916 40.1961 139.796 40.2761 139.716C40.3561 139.628 40.4721 139.584 40.6241 139.584C40.7761 139.584 40.8921 139.628 40.9721 139.716C41.0601 139.796 41.1041 139.916 41.1041 140.076V141.048H40.9841C41.1121 140.576 41.3561 140.212 41.7161 139.956C42.0761 139.7 42.5201 139.564 43.0481 139.548C43.1681 139.54 43.2641 139.568 43.3361 139.632C43.4081 139.688 43.4481 139.788 43.4561 139.932C43.4641 140.068 43.4321 140.176 43.3601 140.256C43.2881 140.336 43.1761 140.384 43.0241 140.4L42.8321 140.424C42.2881 140.472 41.8681 140.648 41.5721 140.952C41.2841 141.248 41.1401 141.656 41.1401 142.176V145.08C41.1401 145.24 41.0961 145.364 41.0081 145.452C40.9281 145.54 40.8081 145.584 40.6481 145.584ZM47.1133 145.608C46.6573 145.608 46.2733 145.528 45.9613 145.368C45.6573 145.2 45.4293 144.96 45.2773 144.648C45.1253 144.328 45.0493 143.94 45.0493 143.484V140.424H44.2453C44.1093 140.424 44.0053 140.392 43.9333 140.328C43.8613 140.256 43.8253 140.16 43.8253 140.04C43.8253 139.92 43.8613 139.828 43.9333 139.764C44.0053 139.7 44.1093 139.668 44.2453 139.668H45.0493V138.288C45.0493 138.128 45.0933 138.008 45.1813 137.928C45.2693 137.84 45.3893 137.796 45.5413 137.796C45.6933 137.796 45.8093 137.84 45.8893 137.928C45.9773 138.008 46.0213 138.128 46.0213 138.288V139.668H47.5333C47.6693 139.668 47.7733 139.7 47.8453 139.764C47.9173 139.828 47.9533 139.92 47.9533 140.04C47.9533 140.16 47.9173 140.256 47.8453 140.328C47.7733 140.392 47.6693 140.424 47.5333 140.424H46.0213V143.388C46.0213 143.844 46.1173 144.192 46.3093 144.432C46.5013 144.664 46.8133 144.78 47.2453 144.78C47.3973 144.78 47.5253 144.764 47.6293 144.732C47.7413 144.7 47.8333 144.684 47.9053 144.684C47.9773 144.676 48.0373 144.7 48.0853 144.756C48.1333 144.812 48.1573 144.908 48.1573 145.044C48.1573 145.14 48.1373 145.228 48.0973 145.308C48.0653 145.388 48.0053 145.444 47.9173 145.476C47.8213 145.508 47.6933 145.536 47.5333 145.56C47.3813 145.592 47.2413 145.608 47.1133 145.608ZM50.8046 145.608C50.4046 145.608 50.0446 145.532 49.7246 145.38C49.4126 145.22 49.1646 145.004 48.9806 144.732C48.7966 144.46 48.7046 144.156 48.7046 143.82C48.7046 143.388 48.8126 143.048 49.0286 142.8C49.2526 142.552 49.6166 142.376 50.1206 142.272C50.6326 142.168 51.3286 142.116 52.2086 142.116H52.7486V142.752H52.2206C51.5726 142.752 51.0606 142.784 50.6846 142.848C50.3166 142.904 50.0566 143.004 49.9046 143.148C49.7606 143.292 49.6886 143.496 49.6886 143.76C49.6886 144.088 49.8006 144.356 50.0246 144.564C50.2566 144.772 50.5686 144.876 50.9606 144.876C51.2806 144.876 51.5606 144.8 51.8006 144.648C52.0486 144.496 52.2406 144.288 52.3766 144.024C52.5206 143.76 52.5926 143.456 52.5926 143.112V141.744C52.5926 141.248 52.4926 140.892 52.2926 140.676C52.0926 140.452 51.7646 140.34 51.3086 140.34C51.0286 140.34 50.7486 140.376 50.4686 140.448C50.1886 140.52 49.8926 140.636 49.5806 140.796C49.4686 140.852 49.3726 140.872 49.2926 140.856C49.2126 140.832 49.1486 140.788 49.1006 140.724C49.0526 140.66 49.0246 140.588 49.0166 140.508C49.0086 140.42 49.0246 140.336 49.0646 140.256C49.1126 140.176 49.1846 140.112 49.2806 140.064C49.6326 139.888 49.9806 139.76 50.3246 139.68C50.6686 139.6 50.9966 139.56 51.3086 139.56C51.8126 139.56 52.2286 139.644 52.5566 139.812C52.8846 139.972 53.1286 140.22 53.2886 140.556C53.4486 140.884 53.5286 141.308 53.5286 141.828V145.08C53.5286 145.24 53.4886 145.364 53.4086 145.452C53.3366 145.54 53.2286 145.584 53.0846 145.584C52.9326 145.584 52.8166 145.54 52.7366 145.452C52.6566 145.364 52.6166 145.24 52.6166 145.08V144.144H52.7246C52.6606 144.448 52.5366 144.708 52.3526 144.924C52.1766 145.14 51.9566 145.308 51.6926 145.428C51.4286 145.548 51.1326 145.608 50.8046 145.608ZM60.2017 145.608C59.6257 145.608 59.1857 145.432 58.8817 145.08C58.5777 144.728 58.4257 144.224 58.4257 143.568V137.448C58.4257 137.288 58.4657 137.168 58.5457 137.088C58.6257 137 58.7457 136.956 58.9057 136.956C59.0577 136.956 59.1777 137 59.2657 137.088C59.3537 137.168 59.3977 137.288 59.3977 137.448V143.496C59.3977 143.928 59.4817 144.252 59.6497 144.468C59.8257 144.676 60.0817 144.78 60.4177 144.78C60.4897 144.78 60.5537 144.776 60.6097 144.768C60.6657 144.76 60.7217 144.756 60.7777 144.756C60.8657 144.748 60.9257 144.768 60.9577 144.816C60.9977 144.864 61.0177 144.96 61.0177 145.104C61.0177 145.248 60.9857 145.356 60.9217 145.428C60.8577 145.5 60.7537 145.548 60.6097 145.572C60.5457 145.58 60.4777 145.588 60.4057 145.596C60.3337 145.604 60.2657 145.608 60.2017 145.608ZM63.8125 145.608C63.4125 145.608 63.0525 145.532 62.7325 145.38C62.4205 145.22 62.1725 145.004 61.9885 144.732C61.8045 144.46 61.7125 144.156 61.7125 143.82C61.7125 143.388 61.8205 143.048 62.0365 142.8C62.2605 142.552 62.6245 142.376 63.1285 142.272C63.6405 142.168 64.3365 142.116 65.2165 142.116H65.7565V142.752H65.2285C64.5805 142.752 64.0685 142.784 63.6925 142.848C63.3245 142.904 63.0645 143.004 62.9125 143.148C62.7685 143.292 62.6965 143.496 62.6965 143.76C62.6965 144.088 62.8085 144.356 63.0325 144.564C63.2645 144.772 63.5765 144.876 63.9685 144.876C64.2885 144.876 64.5685 144.8 64.8085 144.648C65.0565 144.496 65.2485 144.288 65.3845 144.024C65.5285 143.76 65.6005 143.456 65.6005 143.112V141.744C65.6005 141.248 65.5005 140.892 65.3005 140.676C65.1005 140.452 64.7725 140.34 64.3165 140.34C64.0365 140.34 63.7565 140.376 63.4765 140.448C63.1965 140.52 62.9005 140.636 62.5885 140.796C62.4765 140.852 62.3805 140.872 62.3005 140.856C62.2205 140.832 62.1565 140.788 62.1085 140.724C62.0605 140.66 62.0325 140.588 62.0245 140.508C62.0165 140.42 62.0325 140.336 62.0725 140.256C62.1205 140.176 62.1925 140.112 62.2885 140.064C62.6405 139.888 62.9885 139.76 63.3325 139.68C63.6765 139.6 64.0045 139.56 64.3165 139.56C64.8205 139.56 65.2365 139.644 65.5645 139.812C65.8925 139.972 66.1365 140.22 66.2965 140.556C66.4565 140.884 66.5365 141.308 66.5365 141.828V145.08C66.5365 145.24 66.4965 145.364 66.4165 145.452C66.3445 145.54 66.2365 145.584 66.0925 145.584C65.9405 145.584 65.8245 145.54 65.7445 145.452C65.6645 145.364 65.6245 145.24 65.6245 145.08V144.144H65.7325C65.6685 144.448 65.5445 144.708 65.3605 144.924C65.1845 145.14 64.9645 145.308 64.7005 145.428C64.4365 145.548 64.1405 145.608 63.8125 145.608ZM71.9135 145.56C71.7535 145.56 71.6335 145.516 71.5535 145.428C71.4735 145.332 71.4335 145.2 71.4335 145.032V140.124C71.4335 139.956 71.4735 139.828 71.5535 139.74C71.6335 139.652 71.7535 139.608 71.9135 139.608C72.0655 139.608 72.1855 139.652 72.2735 139.74C72.3615 139.828 72.4055 139.956 72.4055 140.124V145.032C72.4055 145.2 72.3615 145.332 72.2735 145.428C72.1935 145.516 72.0735 145.56 71.9135 145.56ZM71.9135 138.264C71.7135 138.264 71.5575 138.212 71.4455 138.108C71.3335 137.996 71.2775 137.848 71.2775 137.664C71.2775 137.472 71.3335 137.328 71.4455 137.232C71.5575 137.128 71.7135 137.076 71.9135 137.076C72.1215 137.076 72.2775 137.128 72.3815 137.232C72.4935 137.328 72.5495 137.472 72.5495 137.664C72.5495 137.848 72.4935 137.996 72.3815 138.108C72.2775 138.212 72.1215 138.264 71.9135 138.264ZM74.7265 145.584C74.5665 145.584 74.4465 145.54 74.3665 145.452C74.2865 145.364 74.2465 145.24 74.2465 145.08V140.076C74.2465 139.916 74.2865 139.796 74.3665 139.716C74.4465 139.628 74.5625 139.584 74.7145 139.584C74.8665 139.584 74.9825 139.628 75.0625 139.716C75.1505 139.796 75.1945 139.916 75.1945 140.076V141.132L75.0625 140.964C75.2145 140.516 75.4585 140.172 75.7945 139.932C76.1385 139.684 76.5465 139.56 77.0185 139.56C77.5145 139.56 77.9145 139.68 78.2185 139.92C78.5305 140.152 78.7385 140.516 78.8425 141.012H78.6625C78.8065 140.564 79.0625 140.212 79.4305 139.956C79.8065 139.692 80.2425 139.56 80.7385 139.56C81.1785 139.56 81.5385 139.644 81.8185 139.812C82.1065 139.98 82.3225 140.236 82.4665 140.58C82.6105 140.916 82.6825 141.344 82.6825 141.864V145.08C82.6825 145.24 82.6385 145.364 82.5505 145.452C82.4705 145.54 82.3505 145.584 82.1905 145.584C82.0385 145.584 81.9185 145.54 81.8305 145.452C81.7505 145.364 81.7105 145.24 81.7105 145.08V141.912C81.7105 141.376 81.6185 140.984 81.4345 140.736C81.2505 140.48 80.9385 140.352 80.4985 140.352C80.0185 140.352 79.6385 140.52 79.3585 140.856C79.0865 141.184 78.9505 141.632 78.9505 142.2V145.08C78.9505 145.24 78.9065 145.364 78.8185 145.452C78.7385 145.54 78.6185 145.584 78.4585 145.584C78.3065 145.584 78.1865 145.54 78.0985 145.452C78.0185 145.364 77.9785 145.24 77.9785 145.08V141.912C77.9785 141.376 77.8825 140.984 77.6905 140.736C77.5065 140.48 77.1985 140.352 76.7665 140.352C76.2865 140.352 75.9065 140.52 75.6265 140.856C75.3545 141.184 75.2185 141.632 75.2185 142.2V145.08C75.2185 145.416 75.0545 145.584 74.7265 145.584ZM86.3359 145.608C85.9359 145.608 85.5759 145.532 85.2559 145.38C84.9439 145.22 84.6959 145.004 84.5119 144.732C84.3279 144.46 84.2359 144.156 84.2359 143.82C84.2359 143.388 84.3439 143.048 84.5599 142.8C84.7839 142.552 85.1479 142.376 85.6519 142.272C86.1639 142.168 86.8599 142.116 87.7399 142.116H88.2799V142.752H87.7519C87.1039 142.752 86.5919 142.784 86.2159 142.848C85.8479 142.904 85.5879 143.004 85.4359 143.148C85.2919 143.292 85.2199 143.496 85.2199 143.76C85.2199 144.088 85.3319 144.356 85.5559 144.564C85.7879 144.772 86.0999 144.876 86.4919 144.876C86.8119 144.876 87.0919 144.8 87.3319 144.648C87.5799 144.496 87.7719 144.288 87.9079 144.024C88.0519 143.76 88.1239 143.456 88.1239 143.112V141.744C88.1239 141.248 88.0239 140.892 87.8239 140.676C87.6239 140.452 87.2959 140.34 86.8399 140.34C86.5599 140.34 86.2799 140.376 85.9999 140.448C85.7199 140.52 85.4239 140.636 85.1119 140.796C84.9999 140.852 84.9039 140.872 84.8239 140.856C84.7439 140.832 84.6799 140.788 84.6319 140.724C84.5839 140.66 84.5559 140.588 84.5479 140.508C84.5399 140.42 84.5559 140.336 84.5959 140.256C84.6439 140.176 84.7159 140.112 84.8119 140.064C85.1639 139.888 85.5119 139.76 85.8559 139.68C86.1999 139.6 86.5279 139.56 86.8399 139.56C87.3439 139.56 87.7599 139.644 88.0879 139.812C88.4159 139.972 88.6599 140.22 88.8199 140.556C88.9799 140.884 89.0599 141.308 89.0599 141.828V145.08C89.0599 145.24 89.0199 145.364 88.9399 145.452C88.8679 145.54 88.7599 145.584 88.6159 145.584C88.4639 145.584 88.3479 145.54 88.2679 145.452C88.1879 145.364 88.1479 145.24 88.1479 145.08V144.144H88.2559C88.1919 144.448 88.0679 144.708 87.8839 144.924C87.7079 145.14 87.4879 145.308 87.2239 145.428C86.9599 145.548 86.6639 145.608 86.3359 145.608ZM93.4432 147.768C93.0192 147.768 92.6032 147.716 92.1952 147.612C91.7952 147.516 91.4312 147.36 91.1032 147.144C91.0072 147.088 90.9432 147.02 90.9112 146.94C90.8872 146.86 90.8832 146.78 90.8992 146.7C90.9152 146.628 90.9512 146.56 91.0072 146.496C91.0632 146.44 91.1272 146.404 91.1992 146.388C91.2792 146.372 91.3592 146.384 91.4392 146.424C91.7912 146.64 92.1272 146.788 92.4472 146.868C92.7672 146.948 93.0832 146.988 93.3952 146.988C93.9632 146.988 94.3912 146.836 94.6792 146.532C94.9752 146.228 95.1232 145.788 95.1232 145.212V143.856H95.2432C95.1232 144.32 94.8672 144.688 94.4752 144.96C94.0912 145.232 93.6392 145.368 93.1192 145.368C92.5832 145.368 92.1192 145.248 91.7272 145.008C91.3352 144.76 91.0312 144.416 90.8152 143.976C90.6072 143.536 90.5032 143.028 90.5032 142.452C90.5032 142.02 90.5632 141.628 90.6832 141.276C90.8032 140.916 90.9752 140.612 91.1992 140.364C91.4312 140.108 91.7072 139.912 92.0272 139.776C92.3552 139.632 92.7192 139.56 93.1192 139.56C93.6472 139.56 94.1032 139.696 94.4872 139.968C94.8712 140.232 95.1192 140.592 95.2312 141.048L95.1112 141.192V140.076C95.1112 139.916 95.1512 139.796 95.2312 139.716C95.3192 139.628 95.4392 139.584 95.5912 139.584C95.7512 139.584 95.8712 139.628 95.9512 139.716C96.0312 139.796 96.0712 139.916 96.0712 140.076V145.08C96.0712 145.968 95.8472 146.636 95.3992 147.084C94.9592 147.54 94.3072 147.768 93.4432 147.768ZM93.2992 144.576C93.6752 144.576 93.9992 144.492 94.2712 144.324C94.5432 144.148 94.7512 143.9 94.8952 143.58C95.0472 143.26 95.1232 142.884 95.1232 142.452C95.1232 141.804 94.9592 141.292 94.6312 140.916C94.3032 140.532 93.8592 140.34 93.2992 140.34C92.9312 140.34 92.6112 140.428 92.3392 140.604C92.0672 140.772 91.8552 141.016 91.7032 141.336C91.5592 141.648 91.4872 142.02 91.4872 142.452C91.4872 143.1 91.6512 143.616 91.9792 144C92.3072 144.384 92.7472 144.576 93.2992 144.576ZM100.522 145.608C99.9064 145.608 99.3744 145.488 98.9264 145.248C98.4864 145 98.1424 144.652 97.8944 144.204C97.6544 143.756 97.5344 143.22 97.5344 142.596C97.5344 141.988 97.6544 141.46 97.8944 141.012C98.1344 140.556 98.4624 140.2 98.8784 139.944C99.3024 139.688 99.7904 139.56 100.342 139.56C100.734 139.56 101.086 139.628 101.398 139.764C101.71 139.892 101.974 140.08 102.19 140.328C102.414 140.576 102.582 140.876 102.694 141.228C102.814 141.58 102.874 141.976 102.874 142.416C102.874 142.544 102.838 142.64 102.766 142.704C102.694 142.76 102.59 142.788 102.454 142.788H98.2784V142.152H102.226L102.034 142.308C102.034 141.876 101.97 141.512 101.842 141.216C101.714 140.912 101.526 140.68 101.278 140.52C101.038 140.36 100.734 140.28 100.366 140.28C99.9584 140.28 99.6104 140.376 99.3224 140.568C99.0424 140.752 98.8304 141.012 98.6864 141.348C98.5424 141.676 98.4704 142.06 98.4704 142.5V142.572C98.4704 143.308 98.6464 143.868 98.9984 144.252C99.3584 144.636 99.8664 144.828 100.522 144.828C100.794 144.828 101.062 144.792 101.326 144.72C101.598 144.648 101.862 144.528 102.118 144.36C102.23 144.288 102.33 144.256 102.418 144.264C102.514 144.264 102.59 144.292 102.646 144.348C102.702 144.396 102.738 144.46 102.754 144.54C102.778 144.612 102.77 144.692 102.73 144.78C102.698 144.868 102.63 144.944 102.526 145.008C102.262 145.2 101.95 145.348 101.59 145.452C101.23 145.556 100.874 145.608 100.522 145.608ZM104.761 145.584C104.601 145.584 104.481 145.54 104.401 145.452C104.321 145.364 104.281 145.24 104.281 145.08V140.076C104.281 139.916 104.321 139.796 104.401 139.716C104.481 139.628 104.597 139.584 104.749 139.584C104.901 139.584 105.017 139.628 105.097 139.716C105.185 139.796 105.229 139.916 105.229 140.076V141.108L105.097 140.964C105.265 140.5 105.537 140.152 105.913 139.92C106.297 139.68 106.737 139.56 107.233 139.56C107.697 139.56 108.081 139.644 108.385 139.812C108.697 139.98 108.929 140.236 109.081 140.58C109.233 140.916 109.309 141.344 109.309 141.864V145.08C109.309 145.24 109.265 145.364 109.177 145.452C109.097 145.54 108.981 145.584 108.829 145.584C108.669 145.584 108.545 145.54 108.457 145.452C108.377 145.364 108.337 145.24 108.337 145.08V141.924C108.337 141.38 108.229 140.984 108.013 140.736C107.805 140.48 107.469 140.352 107.005 140.352C106.469 140.352 106.041 140.52 105.721 140.856C105.409 141.184 105.253 141.624 105.253 142.176V145.08C105.253 145.416 105.089 145.584 104.761 145.584ZM118.887 147.744C118.727 147.744 118.603 147.7 118.515 147.612C118.435 147.532 118.395 147.412 118.395 147.252V144.132H118.527C118.399 144.58 118.147 144.94 117.771 145.212C117.395 145.476 116.943 145.608 116.415 145.608C115.895 145.608 115.439 145.484 115.047 145.236C114.663 144.988 114.363 144.64 114.147 144.192C113.939 143.736 113.835 143.2 113.835 142.584C113.835 141.96 113.939 141.424 114.147 140.976C114.363 140.52 114.663 140.172 115.047 139.932C115.439 139.684 115.895 139.56 116.415 139.56C116.943 139.56 117.395 139.696 117.771 139.968C118.155 140.232 118.411 140.592 118.539 141.048L118.407 141.216V140.076C118.407 139.916 118.447 139.796 118.527 139.716C118.615 139.628 118.735 139.584 118.887 139.584C119.047 139.584 119.167 139.628 119.247 139.716C119.327 139.796 119.367 139.916 119.367 140.076V147.252C119.367 147.412 119.323 147.532 119.235 147.612C119.155 147.7 119.039 147.744 118.887 147.744ZM116.619 144.828C116.979 144.828 117.295 144.74 117.567 144.564C117.839 144.388 118.047 144.132 118.191 143.796C118.343 143.46 118.419 143.056 118.419 142.584C118.419 141.856 118.255 141.3 117.927 140.916C117.607 140.532 117.171 140.34 116.619 140.34C116.251 140.34 115.931 140.428 115.659 140.604C115.395 140.772 115.187 141.024 115.035 141.36C114.891 141.688 114.819 142.096 114.819 142.584C114.819 143.304 114.983 143.86 115.311 144.252C115.639 144.636 116.075 144.828 116.619 144.828ZM123.255 145.608C122.783 145.608 122.391 145.524 122.079 145.356C121.775 145.18 121.543 144.92 121.383 144.576C121.231 144.232 121.155 143.804 121.155 143.292V140.076C121.155 139.908 121.195 139.784 121.275 139.704C121.363 139.624 121.483 139.584 121.635 139.584C121.795 139.584 121.915 139.624 121.995 139.704C122.083 139.784 122.127 139.908 122.127 140.076V143.28C122.127 143.792 122.231 144.176 122.439 144.432C122.655 144.68 122.991 144.804 123.447 144.804C123.943 144.804 124.347 144.636 124.659 144.3C124.971 143.964 125.127 143.524 125.127 142.98V140.076C125.127 139.908 125.167 139.784 125.247 139.704C125.335 139.624 125.459 139.584 125.619 139.584C125.771 139.584 125.887 139.624 125.967 139.704C126.055 139.784 126.099 139.908 126.099 140.076V145.08C126.099 145.416 125.943 145.584 125.631 145.584C125.479 145.584 125.359 145.54 125.271 145.452C125.191 145.364 125.151 145.24 125.151 145.08V143.988L125.307 144.156C125.147 144.628 124.883 144.988 124.515 145.236C124.155 145.484 123.735 145.608 123.255 145.608ZM130.546 145.608C129.93 145.608 129.398 145.488 128.95 145.248C128.51 145 128.166 144.652 127.918 144.204C127.678 143.756 127.558 143.22 127.558 142.596C127.558 141.988 127.678 141.46 127.918 141.012C128.158 140.556 128.486 140.2 128.902 139.944C129.326 139.688 129.814 139.56 130.366 139.56C130.758 139.56 131.11 139.628 131.422 139.764C131.734 139.892 131.998 140.08 132.214 140.328C132.438 140.576 132.606 140.876 132.718 141.228C132.838 141.58 132.898 141.976 132.898 142.416C132.898 142.544 132.862 142.64 132.79 142.704C132.718 142.76 132.614 142.788 132.478 142.788H128.302V142.152H132.25L132.058 142.308C132.058 141.876 131.994 141.512 131.866 141.216C131.738 140.912 131.55 140.68 131.302 140.52C131.062 140.36 130.758 140.28 130.39 140.28C129.982 140.28 129.634 140.376 129.346 140.568C129.066 140.752 128.854 141.012 128.71 141.348C128.566 141.676 128.494 142.06 128.494 142.5V142.572C128.494 143.308 128.67 143.868 129.022 144.252C129.382 144.636 129.89 144.828 130.546 144.828C130.818 144.828 131.086 144.792 131.35 144.72C131.622 144.648 131.886 144.528 132.142 144.36C132.254 144.288 132.354 144.256 132.442 144.264C132.538 144.264 132.614 144.292 132.67 144.348C132.726 144.396 132.762 144.46 132.778 144.54C132.802 144.612 132.794 144.692 132.754 144.78C132.722 144.868 132.654 144.944 132.55 145.008C132.286 145.2 131.974 145.348 131.614 145.452C131.254 145.556 130.898 145.608 130.546 145.608ZM142.09 147.744C141.93 147.744 141.806 147.7 141.718 147.612C141.638 147.532 141.598 147.412 141.598 147.252V144.132H141.73C141.602 144.58 141.35 144.94 140.974 145.212C140.598 145.476 140.146 145.608 139.618 145.608C139.098 145.608 138.642 145.484 138.25 145.236C137.866 144.988 137.566 144.64 137.35 144.192C137.142 143.736 137.038 143.2 137.038 142.584C137.038 141.96 137.142 141.424 137.35 140.976C137.566 140.52 137.866 140.172 138.25 139.932C138.642 139.684 139.098 139.56 139.618 139.56C140.146 139.56 140.598 139.696 140.974 139.968C141.358 140.232 141.614 140.592 141.742 141.048L141.61 141.216V140.076C141.61 139.916 141.65 139.796 141.73 139.716C141.818 139.628 141.938 139.584 142.09 139.584C142.25 139.584 142.37 139.628 142.45 139.716C142.53 139.796 142.57 139.916 142.57 140.076V147.252C142.57 147.412 142.526 147.532 142.438 147.612C142.358 147.7 142.242 147.744 142.09 147.744ZM139.822 144.828C140.182 144.828 140.498 144.74 140.77 144.564C141.042 144.388 141.25 144.132 141.394 143.796C141.546 143.46 141.622 143.056 141.622 142.584C141.622 141.856 141.458 141.3 141.13 140.916C140.81 140.532 140.374 140.34 139.822 140.34C139.454 140.34 139.134 140.428 138.862 140.604C138.598 140.772 138.39 141.024 138.238 141.36C138.094 141.688 138.022 142.096 138.022 142.584C138.022 143.304 138.186 143.86 138.514 144.252C138.842 144.636 139.278 144.828 139.822 144.828ZM146.458 145.608C145.986 145.608 145.594 145.524 145.282 145.356C144.978 145.18 144.746 144.92 144.586 144.576C144.434 144.232 144.358 143.804 144.358 143.292V140.076C144.358 139.908 144.398 139.784 144.478 139.704C144.566 139.624 144.686 139.584 144.838 139.584C144.998 139.584 145.118 139.624 145.198 139.704C145.286 139.784 145.33 139.908 145.33 140.076V143.28C145.33 143.792 145.434 144.176 145.642 144.432C145.858 144.68 146.194 144.804 146.65 144.804C147.146 144.804 147.55 144.636 147.862 144.3C148.174 143.964 148.33 143.524 148.33 142.98V140.076C148.33 139.908 148.37 139.784 148.45 139.704C148.538 139.624 148.662 139.584 148.822 139.584C148.974 139.584 149.09 139.624 149.17 139.704C149.258 139.784 149.302 139.908 149.302 140.076V145.08C149.302 145.416 149.146 145.584 148.834 145.584C148.682 145.584 148.562 145.54 148.474 145.452C148.394 145.364 148.354 145.24 148.354 145.08V143.988L148.51 144.156C148.35 144.628 148.086 144.988 147.718 145.236C147.358 145.484 146.938 145.608 146.458 145.608ZM151.601 145.56C151.441 145.56 151.321 145.516 151.241 145.428C151.161 145.332 151.121 145.2 151.121 145.032V140.124C151.121 139.956 151.161 139.828 151.241 139.74C151.321 139.652 151.441 139.608 151.601 139.608C151.753 139.608 151.873 139.652 151.961 139.74C152.049 139.828 152.093 139.956 152.093 140.124V145.032C152.093 145.2 152.049 145.332 151.961 145.428C151.881 145.516 151.761 145.56 151.601 145.56ZM151.601 138.264C151.401 138.264 151.245 138.212 151.133 138.108C151.021 137.996 150.965 137.848 150.965 137.664C150.965 137.472 151.021 137.328 151.133 137.232C151.245 137.128 151.401 137.076 151.601 137.076C151.809 137.076 151.965 137.128 152.069 137.232C152.181 137.328 152.237 137.472 152.237 137.664C152.237 137.848 152.181 137.996 152.069 138.108C151.965 138.212 151.809 138.264 151.601 138.264ZM156.538 145.608C155.922 145.608 155.39 145.488 154.942 145.248C154.502 145 154.158 144.652 153.91 144.204C153.67 143.756 153.55 143.22 153.55 142.596C153.55 141.988 153.67 141.46 153.91 141.012C154.15 140.556 154.478 140.2 154.894 139.944C155.318 139.688 155.806 139.56 156.358 139.56C156.75 139.56 157.102 139.628 157.414 139.764C157.726 139.892 157.99 140.08 158.206 140.328C158.43 140.576 158.598 140.876 158.71 141.228C158.83 141.58 158.89 141.976 158.89 142.416C158.89 142.544 158.854 142.64 158.782 142.704C158.71 142.76 158.606 142.788 158.47 142.788H154.294V142.152H158.242L158.05 142.308C158.05 141.876 157.986 141.512 157.858 141.216C157.73 140.912 157.542 140.68 157.294 140.52C157.054 140.36 156.75 140.28 156.382 140.28C155.974 140.28 155.626 140.376 155.338 140.568C155.058 140.752 154.846 141.012 154.702 141.348C154.558 141.676 154.486 142.06 154.486 142.5V142.572C154.486 143.308 154.662 143.868 155.014 144.252C155.374 144.636 155.882 144.828 156.538 144.828C156.81 144.828 157.078 144.792 157.342 144.72C157.614 144.648 157.878 144.528 158.134 144.36C158.246 144.288 158.346 144.256 158.434 144.264C158.53 144.264 158.606 144.292 158.662 144.348C158.718 144.396 158.754 144.46 158.77 144.54C158.794 144.612 158.786 144.692 158.746 144.78C158.714 144.868 158.646 144.944 158.542 145.008C158.278 145.2 157.966 145.348 157.606 145.452C157.246 145.556 156.89 145.608 156.538 145.608ZM160.789 145.584C160.629 145.584 160.505 145.54 160.417 145.452C160.337 145.364 160.297 145.24 160.297 145.08V140.076C160.297 139.916 160.337 139.796 160.417 139.716C160.497 139.628 160.613 139.584 160.765 139.584C160.917 139.584 161.033 139.628 161.113 139.716C161.201 139.796 161.245 139.916 161.245 140.076V141.048H161.125C161.253 140.576 161.497 140.212 161.857 139.956C162.217 139.7 162.661 139.564 163.189 139.548C163.309 139.54 163.405 139.568 163.477 139.632C163.549 139.688 163.589 139.788 163.597 139.932C163.605 140.068 163.573 140.176 163.501 140.256C163.429 140.336 163.317 140.384 163.165 140.4L162.973 140.424C162.429 140.472 162.009 140.648 161.713 140.952C161.425 141.248 161.281 141.656 161.281 142.176V145.08C161.281 145.24 161.237 145.364 161.149 145.452C161.069 145.54 160.949 145.584 160.789 145.584ZM167.155 145.608C166.539 145.608 166.007 145.488 165.559 145.248C165.119 145 164.775 144.652 164.527 144.204C164.287 143.756 164.167 143.22 164.167 142.596C164.167 141.988 164.287 141.46 164.527 141.012C164.767 140.556 165.095 140.2 165.511 139.944C165.935 139.688 166.423 139.56 166.975 139.56C167.367 139.56 167.719 139.628 168.031 139.764C168.343 139.892 168.607 140.08 168.823 140.328C169.047 140.576 169.215 140.876 169.327 141.228C169.447 141.58 169.507 141.976 169.507 142.416C169.507 142.544 169.471 142.64 169.399 142.704C169.327 142.76 169.223 142.788 169.087 142.788H164.911V142.152H168.859L168.667 142.308C168.667 141.876 168.603 141.512 168.475 141.216C168.347 140.912 168.159 140.68 167.911 140.52C167.671 140.36 167.367 140.28 166.999 140.28C166.591 140.28 166.243 140.376 165.955 140.568C165.675 140.752 165.463 141.012 165.319 141.348C165.175 141.676 165.103 142.06 165.103 142.5V142.572C165.103 143.308 165.279 143.868 165.631 144.252C165.991 144.636 166.499 144.828 167.155 144.828C167.427 144.828 167.695 144.792 167.959 144.72C168.231 144.648 168.495 144.528 168.751 144.36C168.863 144.288 168.963 144.256 169.051 144.264C169.147 144.264 169.223 144.292 169.279 144.348C169.335 144.396 169.371 144.46 169.387 144.54C169.411 144.612 169.403 144.692 169.363 144.78C169.331 144.868 169.263 144.944 169.159 145.008C168.895 145.2 168.583 145.348 168.223 145.452C167.863 145.556 167.507 145.608 167.155 145.608ZM172.882 145.608C172.522 145.608 172.158 145.564 171.79 145.476C171.43 145.388 171.094 145.236 170.782 145.02C170.702 144.964 170.646 144.9 170.614 144.828C170.582 144.748 170.57 144.672 170.578 144.6C170.594 144.52 170.626 144.452 170.674 144.396C170.73 144.34 170.794 144.308 170.866 144.3C170.946 144.284 171.034 144.3 171.13 144.348C171.442 144.54 171.742 144.676 172.03 144.756C172.326 144.828 172.618 144.864 172.906 144.864C173.362 144.864 173.706 144.78 173.938 144.612C174.17 144.444 174.286 144.216 174.286 143.928C174.286 143.704 174.21 143.528 174.058 143.4C173.906 143.264 173.666 143.16 173.338 143.088L172.246 142.848C171.742 142.744 171.366 142.564 171.118 142.308C170.878 142.052 170.758 141.72 170.758 141.312C170.758 140.952 170.85 140.644 171.034 140.388C171.226 140.124 171.494 139.92 171.838 139.776C172.182 139.632 172.582 139.56 173.038 139.56C173.39 139.56 173.722 139.608 174.034 139.704C174.354 139.792 174.642 139.936 174.898 140.136C174.978 140.192 175.03 140.26 175.054 140.34C175.086 140.412 175.09 140.488 175.066 140.568C175.05 140.64 175.014 140.704 174.958 140.76C174.902 140.808 174.834 140.836 174.754 140.844C174.674 140.852 174.59 140.828 174.502 140.772C174.262 140.612 174.018 140.496 173.77 140.424C173.522 140.344 173.278 140.304 173.038 140.304C172.59 140.304 172.25 140.392 172.018 140.568C171.786 140.744 171.67 140.976 171.67 141.264C171.67 141.488 171.742 141.672 171.886 141.816C172.03 141.96 172.254 142.064 172.558 142.128L173.65 142.356C174.17 142.468 174.558 142.648 174.814 142.896C175.078 143.136 175.21 143.464 175.21 143.88C175.21 144.408 174.998 144.828 174.574 145.14C174.15 145.452 173.586 145.608 172.882 145.608ZM41.1626 163.744C41.0026 163.744 40.8786 163.7 40.7906 163.612C40.7106 163.532 40.6706 163.412 40.6706 163.252V160.132H40.8026C40.6746 160.58 40.4226 160.94 40.0466 161.212C39.6706 161.476 39.2186 161.608 38.6906 161.608C38.1706 161.608 37.7146 161.484 37.3226 161.236C36.9386 160.988 36.6386 160.64 36.4226 160.192C36.2146 159.736 36.1106 159.2 36.1106 158.584C36.1106 157.96 36.2146 157.424 36.4226 156.976C36.6386 156.52 36.9386 156.172 37.3226 155.932C37.7146 155.684 38.1706 155.56 38.6906 155.56C39.2186 155.56 39.6706 155.696 40.0466 155.968C40.4306 156.232 40.6866 156.592 40.8146 157.048L40.6826 157.216V156.076C40.6826 155.916 40.7226 155.796 40.8026 155.716C40.8906 155.628 41.0106 155.584 41.1626 155.584C41.3226 155.584 41.4426 155.628 41.5226 155.716C41.6026 155.796 41.6426 155.916 41.6426 156.076V163.252C41.6426 163.412 41.5986 163.532 41.5106 163.612C41.4306 163.7 41.3146 163.744 41.1626 163.744ZM38.8946 160.828C39.2546 160.828 39.5706 160.74 39.8426 160.564C40.1146 160.388 40.3226 160.132 40.4666 159.796C40.6186 159.46 40.6946 159.056 40.6946 158.584C40.6946 157.856 40.5306 157.3 40.2026 156.916C39.8826 156.532 39.4466 156.34 38.8946 156.34C38.5266 156.34 38.2066 156.428 37.9346 156.604C37.6706 156.772 37.4626 157.024 37.3106 157.36C37.1666 157.688 37.0946 158.096 37.0946 158.584C37.0946 159.304 37.2586 159.86 37.5866 160.252C37.9146 160.636 38.3506 160.828 38.8946 160.828ZM45.5307 161.608C45.0587 161.608 44.6667 161.524 44.3547 161.356C44.0507 161.18 43.8187 160.92 43.6587 160.576C43.5067 160.232 43.4307 159.804 43.4307 159.292V156.076C43.4307 155.908 43.4707 155.784 43.5507 155.704C43.6387 155.624 43.7587 155.584 43.9107 155.584C44.0707 155.584 44.1907 155.624 44.2707 155.704C44.3587 155.784 44.4027 155.908 44.4027 156.076V159.28C44.4027 159.792 44.5067 160.176 44.7147 160.432C44.9307 160.68 45.2667 160.804 45.7227 160.804C46.2187 160.804 46.6227 160.636 46.9347 160.3C47.2467 159.964 47.4027 159.524 47.4027 158.98V156.076C47.4027 155.908 47.4427 155.784 47.5227 155.704C47.6107 155.624 47.7347 155.584 47.8947 155.584C48.0467 155.584 48.1627 155.624 48.2427 155.704C48.3307 155.784 48.3747 155.908 48.3747 156.076V161.08C48.3747 161.416 48.2187 161.584 47.9067 161.584C47.7547 161.584 47.6347 161.54 47.5467 161.452C47.4667 161.364 47.4267 161.24 47.4267 161.08V159.988L47.5827 160.156C47.4227 160.628 47.1587 160.988 46.7907 161.236C46.4307 161.484 46.0107 161.608 45.5307 161.608ZM52.8213 161.608C52.2053 161.608 51.6733 161.488 51.2253 161.248C50.7853 161 50.4413 160.652 50.1933 160.204C49.9533 159.756 49.8333 159.22 49.8333 158.596C49.8333 157.988 49.9533 157.46 50.1933 157.012C50.4333 156.556 50.7613 156.2 51.1773 155.944C51.6013 155.688 52.0893 155.56 52.6413 155.56C53.0333 155.56 53.3853 155.628 53.6973 155.764C54.0093 155.892 54.2733 156.08 54.4893 156.328C54.7133 156.576 54.8813 156.876 54.9933 157.228C55.1133 157.58 55.1733 157.976 55.1733 158.416C55.1733 158.544 55.1373 158.64 55.0653 158.704C54.9933 158.76 54.8893 158.788 54.7533 158.788H50.5773V158.152H54.5253L54.3333 158.308C54.3333 157.876 54.2693 157.512 54.1413 157.216C54.0133 156.912 53.8253 156.68 53.5773 156.52C53.3373 156.36 53.0333 156.28 52.6653 156.28C52.2573 156.28 51.9093 156.376 51.6213 156.568C51.3413 156.752 51.1293 157.012 50.9853 157.348C50.8413 157.676 50.7693 158.06 50.7693 158.5V158.572C50.7693 159.308 50.9453 159.868 51.2973 160.252C51.6573 160.636 52.1653 160.828 52.8213 160.828C53.0933 160.828 53.3613 160.792 53.6253 160.72C53.8973 160.648 54.1613 160.528 54.4173 160.36C54.5293 160.288 54.6293 160.256 54.7173 160.264C54.8133 160.264 54.8893 160.292 54.9453 160.348C55.0013 160.396 55.0373 160.46 55.0533 160.54C55.0773 160.612 55.0693 160.692 55.0293 160.78C54.9973 160.868 54.9293 160.944 54.8253 161.008C54.5613 161.2 54.2493 161.348 53.8893 161.452C53.5293 161.556 53.1733 161.608 52.8213 161.608ZM61.8457 161.584C61.7097 161.584 61.5897 161.548 61.4857 161.476C61.3817 161.396 61.2937 161.276 61.2217 161.116L59.1457 156.268C59.0897 156.148 59.0697 156.036 59.0857 155.932C59.1017 155.828 59.1497 155.744 59.2297 155.68C59.3097 155.616 59.4217 155.584 59.5657 155.584C59.6937 155.584 59.7937 155.612 59.8657 155.668C59.9377 155.724 60.0017 155.824 60.0577 155.968L62.0257 160.78H61.7017L63.7057 155.968C63.7617 155.824 63.8257 155.724 63.8977 155.668C63.9697 155.612 64.0737 155.584 64.2097 155.584C64.3377 155.584 64.4337 155.616 64.4977 155.68C64.5697 155.744 64.6097 155.828 64.6177 155.932C64.6337 156.028 64.6177 156.136 64.5697 156.256L62.4697 161.116C62.4137 161.276 62.3297 161.396 62.2177 161.476C62.1137 161.548 61.9897 161.584 61.8457 161.584ZM68.3955 161.608C67.7795 161.608 67.2475 161.488 66.7995 161.248C66.3595 161 66.0155 160.652 65.7675 160.204C65.5275 159.756 65.4075 159.22 65.4075 158.596C65.4075 157.988 65.5275 157.46 65.7675 157.012C66.0075 156.556 66.3355 156.2 66.7515 155.944C67.1755 155.688 67.6635 155.56 68.2155 155.56C68.6075 155.56 68.9595 155.628 69.2715 155.764C69.5835 155.892 69.8475 156.08 70.0635 156.328C70.2875 156.576 70.4555 156.876 70.5675 157.228C70.6875 157.58 70.7475 157.976 70.7475 158.416C70.7475 158.544 70.7115 158.64 70.6395 158.704C70.5675 158.76 70.4635 158.788 70.3275 158.788H66.1515V158.152H70.0995L69.9075 158.308C69.9075 157.876 69.8435 157.512 69.7155 157.216C69.5875 156.912 69.3995 156.68 69.1515 156.52C68.9115 156.36 68.6075 156.28 68.2395 156.28C67.8315 156.28 67.4835 156.376 67.1955 156.568C66.9155 156.752 66.7035 157.012 66.5595 157.348C66.4155 157.676 66.3435 158.06 66.3435 158.5V158.572C66.3435 159.308 66.5195 159.868 66.8715 160.252C67.2315 160.636 67.7395 160.828 68.3955 160.828C68.6675 160.828 68.9355 160.792 69.1995 160.72C69.4715 160.648 69.7355 160.528 69.9915 160.36C70.1035 160.288 70.2035 160.256 70.2915 160.264C70.3875 160.264 70.4635 160.292 70.5195 160.348C70.5755 160.396 70.6115 160.46 70.6275 160.54C70.6515 160.612 70.6435 160.692 70.6035 160.78C70.5715 160.868 70.5035 160.944 70.3995 161.008C70.1355 161.2 69.8235 161.348 69.4635 161.452C69.1035 161.556 68.7475 161.608 68.3955 161.608ZM73.9902 161.608C73.5902 161.608 73.2302 161.532 72.9102 161.38C72.5982 161.22 72.3502 161.004 72.1662 160.732C71.9822 160.46 71.8902 160.156 71.8902 159.82C71.8902 159.388 71.9982 159.048 72.2142 158.8C72.4382 158.552 72.8022 158.376 73.3062 158.272C73.8182 158.168 74.5142 158.116 75.3942 158.116H75.9342V158.752H75.4062C74.7582 158.752 74.2462 158.784 73.8702 158.848C73.5022 158.904 73.2422 159.004 73.0902 159.148C72.9462 159.292 72.8742 159.496 72.8742 159.76C72.8742 160.088 72.9862 160.356 73.2102 160.564C73.4422 160.772 73.7542 160.876 74.1462 160.876C74.4662 160.876 74.7462 160.8 74.9862 160.648C75.2342 160.496 75.4262 160.288 75.5622 160.024C75.7062 159.76 75.7782 159.456 75.7782 159.112V157.744C75.7782 157.248 75.6782 156.892 75.4782 156.676C75.2782 156.452 74.9502 156.34 74.4942 156.34C74.2142 156.34 73.9342 156.376 73.6542 156.448C73.3742 156.52 73.0782 156.636 72.7662 156.796C72.6542 156.852 72.5582 156.872 72.4782 156.856C72.3982 156.832 72.3342 156.788 72.2862 156.724C72.2382 156.66 72.2102 156.588 72.2022 156.508C72.1942 156.42 72.2102 156.336 72.2502 156.256C72.2982 156.176 72.3702 156.112 72.4662 156.064C72.8182 155.888 73.1662 155.76 73.5102 155.68C73.8542 155.6 74.1822 155.56 74.4942 155.56C74.9982 155.56 75.4142 155.644 75.7422 155.812C76.0702 155.972 76.3142 156.22 76.4742 156.556C76.6342 156.884 76.7142 157.308 76.7142 157.828V161.08C76.7142 161.24 76.6742 161.364 76.5942 161.452C76.5222 161.54 76.4142 161.584 76.2702 161.584C76.1182 161.584 76.0022 161.54 75.9222 161.452C75.8422 161.364 75.8022 161.24 75.8022 161.08V160.144H75.9102C75.8462 160.448 75.7222 160.708 75.5382 160.924C75.3622 161.14 75.1422 161.308 74.8782 161.428C74.6142 161.548 74.3182 161.608 73.9902 161.608ZM78.9975 161.584C78.8375 161.584 78.7175 161.54 78.6375 161.452C78.5575 161.364 78.5175 161.24 78.5175 161.08V156.076C78.5175 155.916 78.5575 155.796 78.6375 155.716C78.7175 155.628 78.8335 155.584 78.9855 155.584C79.1375 155.584 79.2535 155.628 79.3335 155.716C79.4215 155.796 79.4655 155.916 79.4655 156.076V157.108L79.3335 156.964C79.5015 156.5 79.7735 156.152 80.1495 155.92C80.5335 155.68 80.9735 155.56 81.4695 155.56C81.9335 155.56 82.3175 155.644 82.6215 155.812C82.9335 155.98 83.1655 156.236 83.3175 156.58C83.4695 156.916 83.5455 157.344 83.5455 157.864V161.08C83.5455 161.24 83.5015 161.364 83.4135 161.452C83.3335 161.54 83.2175 161.584 83.0655 161.584C82.9055 161.584 82.7815 161.54 82.6935 161.452C82.6135 161.364 82.5735 161.24 82.5735 161.08V157.924C82.5735 157.38 82.4655 156.984 82.2495 156.736C82.0415 156.48 81.7055 156.352 81.2415 156.352C80.7055 156.352 80.2775 156.52 79.9575 156.856C79.6455 157.184 79.4895 157.624 79.4895 158.176V161.08C79.4895 161.416 79.3255 161.584 78.9975 161.584ZM90.7715 161.608C90.3155 161.608 89.9315 161.528 89.6195 161.368C89.3155 161.2 89.0875 160.96 88.9355 160.648C88.7835 160.328 88.7075 159.94 88.7075 159.484V156.424H87.9035C87.7675 156.424 87.6635 156.392 87.5915 156.328C87.5195 156.256 87.4835 156.16 87.4835 156.04C87.4835 155.92 87.5195 155.828 87.5915 155.764C87.6635 155.7 87.7675 155.668 87.9035 155.668H88.7075V154.288C88.7075 154.128 88.7515 154.008 88.8395 153.928C88.9275 153.84 89.0475 153.796 89.1995 153.796C89.3515 153.796 89.4675 153.84 89.5475 153.928C89.6355 154.008 89.6795 154.128 89.6795 154.288V155.668H91.1915C91.3275 155.668 91.4315 155.7 91.5035 155.764C91.5755 155.828 91.6115 155.92 91.6115 156.04C91.6115 156.16 91.5755 156.256 91.5035 156.328C91.4315 156.392 91.3275 156.424 91.1915 156.424H89.6795V159.388C89.6795 159.844 89.7755 160.192 89.9675 160.432C90.1595 160.664 90.4715 160.78 90.9035 160.78C91.0555 160.78 91.1835 160.764 91.2875 160.732C91.3995 160.7 91.4915 160.684 91.5635 160.684C91.6355 160.676 91.6955 160.7 91.7435 160.756C91.7915 160.812 91.8155 160.908 91.8155 161.044C91.8155 161.14 91.7955 161.228 91.7555 161.308C91.7235 161.388 91.6635 161.444 91.5755 161.476C91.4795 161.508 91.3515 161.536 91.1915 161.56C91.0395 161.592 90.8995 161.608 90.7715 161.608ZM94.6908 161.608C94.2188 161.608 93.8268 161.524 93.5148 161.356C93.2108 161.18 92.9788 160.92 92.8188 160.576C92.6668 160.232 92.5908 159.804 92.5908 159.292V156.076C92.5908 155.908 92.6308 155.784 92.7108 155.704C92.7988 155.624 92.9188 155.584 93.0708 155.584C93.2308 155.584 93.3508 155.624 93.4308 155.704C93.5188 155.784 93.5628 155.908 93.5628 156.076V159.28C93.5628 159.792 93.6668 160.176 93.8748 160.432C94.0908 160.68 94.4268 160.804 94.8828 160.804C95.3788 160.804 95.7828 160.636 96.0948 160.3C96.4068 159.964 96.5628 159.524 96.5628 158.98V156.076C96.5628 155.908 96.6028 155.784 96.6828 155.704C96.7708 155.624 96.8948 155.584 97.0548 155.584C97.2068 155.584 97.3228 155.624 97.4028 155.704C97.4908 155.784 97.5348 155.908 97.5348 156.076V161.08C97.5348 161.416 97.3788 161.584 97.0668 161.584C96.9148 161.584 96.7948 161.54 96.7068 161.452C96.6268 161.364 96.5868 161.24 96.5868 161.08V159.988L96.7428 160.156C96.5828 160.628 96.3188 160.988 95.9508 161.236C95.5908 161.484 95.1708 161.608 94.6908 161.608ZM101.321 161.608C100.961 161.608 100.597 161.564 100.229 161.476C99.8694 161.388 99.5334 161.236 99.2214 161.02C99.1414 160.964 99.0854 160.9 99.0534 160.828C99.0214 160.748 99.0094 160.672 99.0174 160.6C99.0334 160.52 99.0654 160.452 99.1134 160.396C99.1694 160.34 99.2334 160.308 99.3054 160.3C99.3854 160.284 99.4734 160.3 99.5694 160.348C99.8814 160.54 100.181 160.676 100.469 160.756C100.765 160.828 101.057 160.864 101.345 160.864C101.801 160.864 102.145 160.78 102.377 160.612C102.609 160.444 102.725 160.216 102.725 159.928C102.725 159.704 102.649 159.528 102.497 159.4C102.345 159.264 102.105 159.16 101.777 159.088L100.685 158.848C100.181 158.744 99.8054 158.564 99.5574 158.308C99.3174 158.052 99.1974 157.72 99.1974 157.312C99.1974 156.952 99.2894 156.644 99.4734 156.388C99.6654 156.124 99.9334 155.92 100.277 155.776C100.621 155.632 101.021 155.56 101.477 155.56C101.829 155.56 102.161 155.608 102.473 155.704C102.793 155.792 103.081 155.936 103.337 156.136C103.417 156.192 103.469 156.26 103.493 156.34C103.525 156.412 103.529 156.488 103.505 156.568C103.489 156.64 103.453 156.704 103.397 156.76C103.341 156.808 103.273 156.836 103.193 156.844C103.113 156.852 103.029 156.828 102.941 156.772C102.701 156.612 102.457 156.496 102.209 156.424C101.961 156.344 101.717 156.304 101.477 156.304C101.029 156.304 100.689 156.392 100.457 156.568C100.225 156.744 100.109 156.976 100.109 157.264C100.109 157.488 100.181 157.672 100.325 157.816C100.469 157.96 100.693 158.064 100.997 158.128L102.089 158.356C102.609 158.468 102.997 158.648 103.253 158.896C103.517 159.136 103.649 159.464 103.649 159.88C103.649 160.408 103.437 160.828 103.013 161.14C102.589 161.452 102.025 161.608 101.321 161.608ZM110.289 161.608C109.817 161.608 109.425 161.524 109.113 161.356C108.809 161.18 108.577 160.92 108.417 160.576C108.265 160.232 108.189 159.804 108.189 159.292V156.076C108.189 155.908 108.229 155.784 108.309 155.704C108.397 155.624 108.517 155.584 108.669 155.584C108.829 155.584 108.949 155.624 109.029 155.704C109.117 155.784 109.161 155.908 109.161 156.076V159.28C109.161 159.792 109.265 160.176 109.473 160.432C109.689 160.68 110.025 160.804 110.48 160.804C110.977 160.804 111.381 160.636 111.693 160.3C112.005 159.964 112.161 159.524 112.161 158.98V156.076C112.161 155.908 112.201 155.784 112.281 155.704C112.369 155.624 112.493 155.584 112.653 155.584C112.805 155.584 112.921 155.624 113.001 155.704C113.089 155.784 113.133 155.908 113.133 156.076V161.08C113.133 161.416 112.977 161.584 112.665 161.584C112.513 161.584 112.393 161.54 112.305 161.452C112.225 161.364 112.185 161.24 112.185 161.08V159.988L112.341 160.156C112.181 160.628 111.917 160.988 111.549 161.236C111.189 161.484 110.769 161.608 110.289 161.608ZM116.919 161.608C116.559 161.608 116.195 161.564 115.827 161.476C115.467 161.388 115.131 161.236 114.819 161.02C114.739 160.964 114.683 160.9 114.651 160.828C114.619 160.748 114.607 160.672 114.615 160.6C114.631 160.52 114.663 160.452 114.711 160.396C114.767 160.34 114.831 160.308 114.903 160.3C114.983 160.284 115.071 160.3 115.167 160.348C115.479 160.54 115.779 160.676 116.067 160.756C116.363 160.828 116.655 160.864 116.943 160.864C117.399 160.864 117.743 160.78 117.975 160.612C118.207 160.444 118.323 160.216 118.323 159.928C118.323 159.704 118.247 159.528 118.095 159.4C117.943 159.264 117.703 159.16 117.375 159.088L116.283 158.848C115.779 158.744 115.403 158.564 115.155 158.308C114.915 158.052 114.795 157.72 114.795 157.312C114.795 156.952 114.887 156.644 115.071 156.388C115.263 156.124 115.531 155.92 115.875 155.776C116.219 155.632 116.619 155.56 117.075 155.56C117.427 155.56 117.759 155.608 118.071 155.704C118.391 155.792 118.679 155.936 118.935 156.136C119.015 156.192 119.067 156.26 119.091 156.34C119.123 156.412 119.127 156.488 119.103 156.568C119.087 156.64 119.051 156.704 118.995 156.76C118.939 156.808 118.871 156.836 118.791 156.844C118.711 156.852 118.627 156.828 118.539 156.772C118.299 156.612 118.055 156.496 117.807 156.424C117.559 156.344 117.315 156.304 117.075 156.304C116.627 156.304 116.287 156.392 116.055 156.568C115.823 156.744 115.707 156.976 115.707 157.264C115.707 157.488 115.779 157.672 115.923 157.816C116.067 157.96 116.291 158.064 116.595 158.128L117.687 158.356C118.207 158.468 118.595 158.648 118.851 158.896C119.115 159.136 119.247 159.464 119.247 159.88C119.247 160.408 119.035 160.828 118.611 161.14C118.187 161.452 117.623 161.608 116.919 161.608ZM122.792 161.608C122.32 161.608 121.928 161.524 121.616 161.356C121.312 161.18 121.08 160.92 120.92 160.576C120.768 160.232 120.692 159.804 120.692 159.292V156.076C120.692 155.908 120.732 155.784 120.812 155.704C120.9 155.624 121.02 155.584 121.172 155.584C121.332 155.584 121.452 155.624 121.532 155.704C121.62 155.784 121.664 155.908 121.664 156.076V159.28C121.664 159.792 121.768 160.176 121.976 160.432C122.192 160.68 122.528 160.804 122.984 160.804C123.48 160.804 123.884 160.636 124.196 160.3C124.508 159.964 124.664 159.524 124.664 158.98V156.076C124.664 155.908 124.704 155.784 124.784 155.704C124.872 155.624 124.996 155.584 125.156 155.584C125.308 155.584 125.424 155.624 125.504 155.704C125.592 155.784 125.636 155.908 125.636 156.076V161.08C125.636 161.416 125.48 161.584 125.168 161.584C125.016 161.584 124.896 161.54 124.808 161.452C124.728 161.364 124.688 161.24 124.688 161.08V159.988L124.844 160.156C124.684 160.628 124.42 160.988 124.052 161.236C123.692 161.484 123.272 161.608 122.792 161.608ZM129.291 161.608C128.891 161.608 128.531 161.532 128.211 161.38C127.899 161.22 127.651 161.004 127.467 160.732C127.283 160.46 127.191 160.156 127.191 159.82C127.191 159.388 127.299 159.048 127.515 158.8C127.739 158.552 128.103 158.376 128.607 158.272C129.119 158.168 129.815 158.116 130.695 158.116H131.235V158.752H130.707C130.059 158.752 129.547 158.784 129.171 158.848C128.803 158.904 128.543 159.004 128.391 159.148C128.247 159.292 128.175 159.496 128.175 159.76C128.175 160.088 128.287 160.356 128.511 160.564C128.743 160.772 129.055 160.876 129.447 160.876C129.767 160.876 130.047 160.8 130.287 160.648C130.535 160.496 130.727 160.288 130.863 160.024C131.007 159.76 131.079 159.456 131.079 159.112V157.744C131.079 157.248 130.979 156.892 130.779 156.676C130.579 156.452 130.251 156.34 129.795 156.34C129.515 156.34 129.235 156.376 128.955 156.448C128.675 156.52 128.379 156.636 128.067 156.796C127.955 156.852 127.859 156.872 127.779 156.856C127.699 156.832 127.635 156.788 127.587 156.724C127.539 156.66 127.511 156.588 127.503 156.508C127.495 156.42 127.511 156.336 127.551 156.256C127.599 156.176 127.671 156.112 127.767 156.064C128.119 155.888 128.467 155.76 128.811 155.68C129.155 155.6 129.483 155.56 129.795 155.56C130.299 155.56 130.715 155.644 131.043 155.812C131.371 155.972 131.615 156.22 131.775 156.556C131.935 156.884 132.015 157.308 132.015 157.828V161.08C132.015 161.24 131.975 161.364 131.895 161.452C131.823 161.54 131.715 161.584 131.571 161.584C131.419 161.584 131.303 161.54 131.223 161.452C131.143 161.364 131.103 161.24 131.103 161.08V160.144H131.211C131.147 160.448 131.023 160.708 130.839 160.924C130.663 161.14 130.443 161.308 130.179 161.428C129.915 161.548 129.619 161.608 129.291 161.608ZM134.31 161.584C134.15 161.584 134.026 161.54 133.938 161.452C133.858 161.364 133.818 161.24 133.818 161.08V156.076C133.818 155.916 133.858 155.796 133.938 155.716C134.018 155.628 134.134 155.584 134.286 155.584C134.438 155.584 134.554 155.628 134.634 155.716C134.722 155.796 134.766 155.916 134.766 156.076V157.048H134.646C134.774 156.576 135.018 156.212 135.378 155.956C135.738 155.7 136.182 155.564 136.71 155.548C136.83 155.54 136.926 155.568 136.998 155.632C137.07 155.688 137.11 155.788 137.118 155.932C137.126 156.068 137.094 156.176 137.022 156.256C136.95 156.336 136.838 156.384 136.686 156.4L136.494 156.424C135.95 156.472 135.53 156.648 135.234 156.952C134.946 157.248 134.802 157.656 134.802 158.176V161.08C134.802 161.24 134.758 161.364 134.67 161.452C134.59 161.54 134.47 161.584 134.31 161.584ZM138.599 161.56C138.439 161.56 138.319 161.516 138.239 161.428C138.159 161.332 138.119 161.2 138.119 161.032V156.124C138.119 155.956 138.159 155.828 138.239 155.74C138.319 155.652 138.439 155.608 138.599 155.608C138.751 155.608 138.871 155.652 138.959 155.74C139.047 155.828 139.091 155.956 139.091 156.124V161.032C139.091 161.2 139.047 161.332 138.959 161.428C138.879 161.516 138.759 161.56 138.599 161.56ZM138.599 154.264C138.399 154.264 138.243 154.212 138.131 154.108C138.019 153.996 137.963 153.848 137.963 153.664C137.963 153.472 138.019 153.328 138.131 153.232C138.243 153.128 138.399 153.076 138.599 153.076C138.807 153.076 138.963 153.128 139.067 153.232C139.179 153.328 139.235 153.472 139.235 153.664C139.235 153.848 139.179 153.996 139.067 154.108C138.963 154.212 138.807 154.264 138.599 154.264ZM143.332 161.608C142.764 161.608 142.272 161.484 141.856 161.236C141.44 160.988 141.116 160.64 140.884 160.192C140.66 159.736 140.548 159.2 140.548 158.584C140.548 158.12 140.612 157.704 140.74 157.336C140.868 156.96 141.056 156.64 141.304 156.376C141.552 156.112 141.844 155.912 142.18 155.776C142.524 155.632 142.908 155.56 143.332 155.56C143.9 155.56 144.392 155.684 144.808 155.932C145.224 156.18 145.544 156.532 145.768 156.988C146 157.436 146.116 157.968 146.116 158.584C146.116 159.048 146.052 159.464 145.924 159.832C145.796 160.2 145.608 160.52 145.36 160.792C145.112 161.056 144.816 161.26 144.472 161.404C144.136 161.54 143.756 161.608 143.332 161.608ZM143.332 160.828C143.692 160.828 144.008 160.74 144.28 160.564C144.552 160.388 144.76 160.132 144.904 159.796C145.056 159.46 145.132 159.056 145.132 158.584C145.132 157.856 144.968 157.3 144.64 156.916C144.32 156.532 143.884 156.34 143.332 156.34C142.964 156.34 142.644 156.428 142.372 156.604C142.108 156.772 141.9 157.024 141.748 157.36C141.604 157.688 141.532 158.096 141.532 158.584C141.532 159.304 141.696 159.86 142.024 160.252C142.352 160.636 142.788 160.828 143.332 160.828ZM149.544 161.608C149.184 161.608 148.82 161.564 148.452 161.476C148.092 161.388 147.756 161.236 147.444 161.02C147.364 160.964 147.308 160.9 147.276 160.828C147.244 160.748 147.232 160.672 147.24 160.6C147.256 160.52 147.288 160.452 147.336 160.396C147.392 160.34 147.456 160.308 147.528 160.3C147.608 160.284 147.696 160.3 147.792 160.348C148.104 160.54 148.404 160.676 148.692 160.756C148.988 160.828 149.28 160.864 149.568 160.864C150.024 160.864 150.368 160.78 150.6 160.612C150.832 160.444 150.948 160.216 150.948 159.928C150.948 159.704 150.872 159.528 150.72 159.4C150.568 159.264 150.328 159.16 150 159.088L148.908 158.848C148.404 158.744 148.028 158.564 147.78 158.308C147.54 158.052 147.42 157.72 147.42 157.312C147.42 156.952 147.512 156.644 147.696 156.388C147.888 156.124 148.156 155.92 148.5 155.776C148.844 155.632 149.244 155.56 149.7 155.56C150.052 155.56 150.384 155.608 150.696 155.704C151.016 155.792 151.304 155.936 151.56 156.136C151.64 156.192 151.692 156.26 151.716 156.34C151.748 156.412 151.752 156.488 151.728 156.568C151.712 156.64 151.676 156.704 151.62 156.76C151.564 156.808 151.496 156.836 151.416 156.844C151.336 156.852 151.252 156.828 151.164 156.772C150.924 156.612 150.68 156.496 150.432 156.424C150.184 156.344 149.94 156.304 149.7 156.304C149.252 156.304 148.912 156.392 148.68 156.568C148.448 156.744 148.332 156.976 148.332 157.264C148.332 157.488 148.404 157.672 148.548 157.816C148.692 157.96 148.916 158.064 149.22 158.128L150.312 158.356C150.832 158.468 151.22 158.648 151.476 158.896C151.74 159.136 151.872 159.464 151.872 159.88C151.872 160.408 151.66 160.828 151.236 161.14C150.812 161.452 150.248 161.608 149.544 161.608Z" fill="#BF3D16"/>
</svg>
