<svg width="174" height="28" viewBox="0 0 174 28" fill="none" xmlns="http://www.w3.org/2000/svg">
<g clip-path="url(#clip0_223_3803)">
<path d="M0.958197 10.8525L11.2992 1.95159C12.0062 1.25666 12.9643 0.868652 13.9634 0.868652H34.3591C37.2862 0.868652 39.6582 3.21984 39.6582 6.12119C39.6582 7.51684 39.0973 8.8488 38.1041 9.83908L29.0426 18.8211C28.9549 18.908 28.8089 18.8442 28.8089 18.7226V15.7923C28.8089 13.1979 26.618 11.1247 24.0006 11.2521L1.151 11.31C0.911458 11.31 0.788768 11.0205 0.96404 10.8525H0.958197Z" stroke="white" stroke-width="1.5" stroke-linecap="round" stroke-linejoin="round"/>
<path d="M28.8088 17.9988V18.352C28.8088 19.0122 28.2713 19.1975 27.5995 19.1975H1.01074" stroke="white" stroke-width="1.5" stroke-linecap="round" stroke-linejoin="round"/>
<path d="M23.1827 15.387H3.56982" stroke="white" stroke-width="1.5" stroke-linecap="round" stroke-linejoin="round"/>
<g opacity="0.5">
<path d="M38.887 9.21948C40.7916 10.0187 42.1237 11.8834 42.1237 14.0608C42.1237 15.4565 41.5628 16.7885 40.5696 17.7787L31.508 26.7607C31.4204 26.8476 31.2743 26.7839 31.2743 26.6623V23.732C31.2743 21.1376 29.0834 19.0644 26.466 19.1918L3.61646 19.2497" stroke="white" stroke-width="1.5" stroke-linecap="round" stroke-linejoin="round"/>
<path d="M31.2744 25.9384V26.2916C31.2744 26.9518 30.7369 27.1371 30.065 27.1371H1.62427" stroke="white" stroke-width="1.5" stroke-linecap="round" stroke-linejoin="round"/>
<path d="M25.6539 23.3267H4.18896" stroke="white" stroke-width="1.5" stroke-linecap="round" stroke-linejoin="round"/>
</g>
</g>
<path d="M53.76 20.5C53.4 20.5 53.12 20.4067 52.92 20.22C52.7333 20.02 52.64 19.74 52.64 19.38V7.52C52.64 7.16 52.7333 6.88667 52.92 6.7C53.12 6.5 53.4 6.4 53.76 6.4H58.52C59.4933 6.4 60.32 6.54667 61 6.84C61.6933 7.13333 62.22 7.55333 62.58 8.1C62.9533 8.64667 63.14 9.30667 63.14 10.08C63.14 10.9333 62.8867 11.6533 62.38 12.24C61.8733 12.8267 61.1867 13.22 60.32 13.42V13.12C61.3067 13.2533 62.08 13.6267 62.64 14.24C63.2 14.84 63.48 15.6267 63.48 16.6C63.48 17.8533 63.0667 18.82 62.24 19.5C61.4133 20.1667 60.2533 20.5 58.76 20.5H53.76ZM54.64 18.9H58.52C59.52 18.9 60.26 18.7067 60.74 18.32C61.22 17.92 61.46 17.32 61.46 16.52C61.46 15.72 61.22 15.1267 60.74 14.74C60.26 14.3533 59.52 14.16 58.52 14.16H54.64V18.9ZM54.64 12.56H58.2C59.16 12.56 59.8867 12.3667 60.38 11.98C60.8733 11.5933 61.12 11.0267 61.12 10.28C61.12 9.53333 60.8733 8.96667 60.38 8.58C59.8867 8.19333 59.16 8 58.2 8H54.64V12.56ZM70.2928 20.68C69.3061 20.68 68.4528 20.4733 67.7328 20.06C67.0261 19.6467 66.4728 19.06 66.0728 18.3C65.6728 17.54 65.4728 16.6467 65.4728 15.62C65.4728 14.8333 65.5861 14.1333 65.8128 13.52C66.0395 12.9067 66.3595 12.38 66.7728 11.94C67.1995 11.4867 67.7061 11.1467 68.2928 10.92C68.8928 10.68 69.5595 10.56 70.2928 10.56C71.2661 10.56 72.1061 10.7667 72.8128 11.18C73.5328 11.5933 74.0928 12.18 74.4928 12.94C74.8928 13.6867 75.0928 14.58 75.0928 15.62C75.0928 16.3933 74.9795 17.0933 74.7528 17.72C74.5261 18.3467 74.1995 18.88 73.7728 19.32C73.3595 19.76 72.8528 20.1 72.2528 20.34C71.6661 20.5667 71.0128 20.68 70.2928 20.68ZM70.2928 19.12C70.8395 19.12 71.3195 18.9867 71.7328 18.72C72.1461 18.4533 72.4661 18.06 72.6928 17.54C72.9328 17.02 73.0528 16.38 73.0528 15.62C73.0528 14.4733 72.7995 13.6067 72.2928 13.02C71.7861 12.4333 71.1195 12.14 70.2928 12.14C69.7328 12.14 69.2461 12.2733 68.8328 12.54C68.4195 12.7933 68.0928 13.18 67.8528 13.7C67.6261 14.22 67.5128 14.86 67.5128 15.62C67.5128 16.7533 67.7661 17.62 68.2728 18.22C68.7795 18.82 69.4528 19.12 70.2928 19.12ZM81.6014 20.68C80.6147 20.68 79.7614 20.4733 79.0414 20.06C78.3347 19.6467 77.7814 19.06 77.3814 18.3C76.9814 17.54 76.7814 16.6467 76.7814 15.62C76.7814 14.8333 76.8947 14.1333 77.1214 13.52C77.3481 12.9067 77.6681 12.38 78.0814 11.94C78.5081 11.4867 79.0147 11.1467 79.6014 10.92C80.2014 10.68 80.8681 10.56 81.6014 10.56C82.5747 10.56 83.4147 10.7667 84.1214 11.18C84.8414 11.5933 85.4014 12.18 85.8014 12.94C86.2014 13.6867 86.4014 14.58 86.4014 15.62C86.4014 16.3933 86.2881 17.0933 86.0614 17.72C85.8347 18.3467 85.5081 18.88 85.0814 19.32C84.6681 19.76 84.1614 20.1 83.5614 20.34C82.9747 20.5667 82.3214 20.68 81.6014 20.68ZM81.6014 19.12C82.1481 19.12 82.6281 18.9867 83.0414 18.72C83.4547 18.4533 83.7747 18.06 84.0014 17.54C84.2414 17.02 84.3614 16.38 84.3614 15.62C84.3614 14.4733 84.1081 13.6067 83.6014 13.02C83.0947 12.4333 82.4281 12.14 81.6014 12.14C81.0414 12.14 80.5547 12.2733 80.1414 12.54C79.7281 12.7933 79.4014 13.18 79.1614 13.7C78.9347 14.22 78.8214 14.86 78.8214 15.62C78.8214 16.7533 79.0747 17.62 79.5814 18.22C80.0881 18.82 80.7614 19.12 81.6014 19.12ZM89.67 20.64C89.35 20.64 89.1033 20.5533 88.93 20.38C88.7567 20.1933 88.67 19.94 88.67 19.62V7.28C88.67 6.94667 88.7567 6.69333 88.93 6.52C89.1033 6.34667 89.35 6.26 89.67 6.26C89.99 6.26 90.2367 6.34667 90.41 6.52C90.5967 6.69333 90.69 6.94667 90.69 7.28V15H90.73L94.47 11.28C94.6833 11.0667 94.8767 10.9 95.05 10.78C95.2233 10.66 95.45 10.6 95.73 10.6C96.01 10.6 96.2233 10.6733 96.37 10.82C96.5167 10.9667 96.59 11.1467 96.59 11.36C96.59 11.56 96.49 11.7667 96.29 11.98L92.33 15.9V14.96L96.65 19.26C96.8633 19.4733 96.9633 19.6867 96.95 19.9C96.9367 20.1133 96.85 20.2933 96.69 20.44C96.53 20.5733 96.33 20.64 96.09 20.64C95.7833 20.64 95.5367 20.58 95.35 20.46C95.1767 20.34 94.97 20.16 94.73 19.92L90.73 16.04H90.69V19.62C90.69 20.3 90.35 20.64 89.67 20.64ZM105.576 20.64C105.229 20.64 104.956 20.5467 104.756 20.36C104.569 20.1733 104.476 19.9 104.476 19.54V7.52C104.476 7.16 104.569 6.88667 104.756 6.7C104.956 6.5 105.236 6.4 105.596 6.4H112.716C113.009 6.4 113.223 6.47333 113.356 6.62C113.503 6.75333 113.576 6.95333 113.576 7.22C113.576 7.5 113.503 7.71333 113.356 7.86C113.223 8.00667 113.009 8.08 112.716 8.08H106.556V12.58H112.316C112.583 12.58 112.789 12.6533 112.936 12.8C113.096 12.9333 113.176 13.1333 113.176 13.4C113.176 13.68 113.096 13.8933 112.936 14.04C112.789 14.1867 112.583 14.26 112.316 14.26H106.556V19.54C106.556 20.2733 106.229 20.64 105.576 20.64ZM118.06 20.68C117.38 20.68 116.766 20.5467 116.22 20.28C115.686 20.0133 115.266 19.6533 114.96 19.2C114.653 18.7467 114.5 18.2333 114.5 17.66C114.5 16.94 114.68 16.3733 115.04 15.96C115.413 15.5333 116.02 15.2333 116.86 15.06C117.713 14.8733 118.86 14.78 120.3 14.78H121.24V16.02H120.32C119.36 16.02 118.6 16.0667 118.04 16.16C117.48 16.2533 117.08 16.4133 116.84 16.64C116.613 16.8533 116.5 17.1533 116.5 17.54C116.5 18.0467 116.673 18.46 117.02 18.78C117.366 19.0867 117.846 19.24 118.46 19.24C118.953 19.24 119.386 19.1267 119.76 18.9C120.133 18.66 120.426 18.34 120.64 17.94C120.866 17.54 120.98 17.08 120.98 16.56V14.26C120.98 13.5 120.82 12.9533 120.5 12.62C120.18 12.2867 119.653 12.12 118.92 12.12C118.493 12.12 118.046 12.1733 117.58 12.28C117.126 12.3867 116.653 12.5667 116.16 12.82C115.933 12.9267 115.74 12.96 115.58 12.92C115.42 12.88 115.293 12.7933 115.2 12.66C115.106 12.5133 115.053 12.36 115.04 12.2C115.04 12.0267 115.08 11.86 115.16 11.7C115.253 11.54 115.406 11.42 115.62 11.34C116.206 11.06 116.786 10.86 117.36 10.74C117.933 10.62 118.473 10.56 118.98 10.56C119.873 10.56 120.606 10.7 121.18 10.98C121.766 11.26 122.2 11.6867 122.48 12.26C122.76 12.8333 122.9 13.5733 122.9 14.48V19.62C122.9 19.94 122.82 20.1933 122.66 20.38C122.5 20.5533 122.266 20.64 121.96 20.64C121.666 20.64 121.433 20.5533 121.26 20.38C121.086 20.1933 121 19.94 121 19.62V18.32H121.18C121.073 18.8133 120.873 19.24 120.58 19.6C120.3 19.9467 119.946 20.2133 119.52 20.4C119.093 20.5867 118.606 20.68 118.06 20.68ZM126.682 20.64C126.362 20.64 126.115 20.5533 125.942 20.38C125.768 20.1933 125.682 19.94 125.682 19.62V11.62C125.682 11.2867 125.768 11.0333 125.942 10.86C126.115 10.6867 126.355 10.6 126.662 10.6C126.982 10.6 127.222 10.6867 127.382 10.86C127.555 11.0333 127.642 11.2867 127.642 11.62V13.18L127.422 12.82C127.715 12.0733 128.175 11.5133 128.802 11.14C129.428 10.7533 130.148 10.56 130.962 10.56C131.735 10.56 132.375 10.7067 132.882 11C133.402 11.28 133.788 11.7133 134.042 12.3C134.295 12.8733 134.422 13.6 134.422 14.48V19.62C134.422 19.94 134.335 20.1933 134.162 20.38C133.988 20.5533 133.742 20.64 133.422 20.64C133.088 20.64 132.835 20.5533 132.662 20.38C132.488 20.1933 132.402 19.94 132.402 19.62V14.6C132.402 13.76 132.235 13.1467 131.902 12.76C131.582 12.3733 131.075 12.18 130.382 12.18C129.568 12.18 128.915 12.4333 128.422 12.94C127.942 13.4467 127.702 14.1267 127.702 14.98V19.62C127.702 20.3 127.362 20.64 126.682 20.64ZM141.365 20.68C140.565 20.68 139.892 20.54 139.345 20.26C138.798 19.98 138.392 19.5667 138.125 19.02C137.858 18.4733 137.725 17.8067 137.725 17.02V12.3H136.525C136.258 12.3 136.052 12.2333 135.905 12.1C135.758 11.9533 135.685 11.76 135.685 11.52C135.685 11.2667 135.758 11.0733 135.905 10.94C136.052 10.8067 136.258 10.74 136.525 10.74H137.725V8.68C137.725 8.34667 137.812 8.09333 137.985 7.92C138.172 7.74667 138.425 7.66 138.745 7.66C139.065 7.66 139.312 7.74667 139.485 7.92C139.658 8.09333 139.745 8.34667 139.745 8.68V10.74H142.085C142.352 10.74 142.558 10.8067 142.705 10.94C142.852 11.0733 142.925 11.2667 142.925 11.52C142.925 11.76 142.852 11.9533 142.705 12.1C142.558 12.2333 142.352 12.3 142.085 12.3H139.745V16.86C139.745 17.5667 139.892 18.1 140.185 18.46C140.492 18.82 140.985 19 141.665 19C141.905 19 142.112 18.98 142.285 18.94C142.472 18.8867 142.625 18.8533 142.745 18.84C142.892 18.84 143.012 18.8933 143.105 19C143.198 19.0933 143.245 19.28 143.245 19.56C143.245 19.76 143.205 19.9467 143.125 20.12C143.058 20.2933 142.932 20.4067 142.745 20.46C142.585 20.5133 142.365 20.56 142.085 20.6C141.818 20.6533 141.578 20.68 141.365 20.68ZM147.63 20.68C146.95 20.68 146.337 20.5467 145.79 20.28C145.257 20.0133 144.837 19.6533 144.53 19.2C144.223 18.7467 144.07 18.2333 144.07 17.66C144.07 16.94 144.25 16.3733 144.61 15.96C144.983 15.5333 145.59 15.2333 146.43 15.06C147.283 14.8733 148.43 14.78 149.87 14.78H150.81V16.02H149.89C148.93 16.02 148.17 16.0667 147.61 16.16C147.05 16.2533 146.65 16.4133 146.41 16.64C146.183 16.8533 146.07 17.1533 146.07 17.54C146.07 18.0467 146.243 18.46 146.59 18.78C146.937 19.0867 147.417 19.24 148.03 19.24C148.523 19.24 148.957 19.1267 149.33 18.9C149.703 18.66 149.997 18.34 150.21 17.94C150.437 17.54 150.55 17.08 150.55 16.56V14.26C150.55 13.5 150.39 12.9533 150.07 12.62C149.75 12.2867 149.223 12.12 148.49 12.12C148.063 12.12 147.617 12.1733 147.15 12.28C146.697 12.3867 146.223 12.5667 145.73 12.82C145.503 12.9267 145.31 12.96 145.15 12.92C144.99 12.88 144.863 12.7933 144.77 12.66C144.677 12.5133 144.623 12.36 144.61 12.2C144.61 12.0267 144.65 11.86 144.73 11.7C144.823 11.54 144.977 11.42 145.19 11.34C145.777 11.06 146.357 10.86 146.93 10.74C147.503 10.62 148.043 10.56 148.55 10.56C149.443 10.56 150.177 10.7 150.75 10.98C151.337 11.26 151.77 11.6867 152.05 12.26C152.33 12.8333 152.47 13.5733 152.47 14.48V19.62C152.47 19.94 152.39 20.1933 152.23 20.38C152.07 20.5533 151.837 20.64 151.53 20.64C151.237 20.64 151.003 20.5533 150.83 20.38C150.657 20.1933 150.57 19.94 150.57 19.62V18.32H150.75C150.643 18.8133 150.443 19.24 150.15 19.6C149.87 19.9467 149.517 20.2133 149.09 20.4C148.663 20.5867 148.177 20.68 147.63 20.68ZM158.672 20.68C158.085 20.68 157.479 20.6133 156.852 20.48C156.239 20.3467 155.672 20.12 155.152 19.8C154.979 19.68 154.859 19.5467 154.792 19.4C154.725 19.2533 154.699 19.1067 154.712 18.96C154.739 18.8 154.799 18.6667 154.892 18.56C154.999 18.44 155.125 18.3667 155.272 18.34C155.432 18.3133 155.599 18.3467 155.772 18.44C156.292 18.7333 156.792 18.94 157.272 19.06C157.752 19.1667 158.225 19.22 158.692 19.22C159.399 19.22 159.932 19.0933 160.292 18.84C160.652 18.5867 160.832 18.2467 160.832 17.82C160.832 17.4733 160.712 17.2067 160.472 17.02C160.232 16.82 159.872 16.6667 159.392 16.56L157.492 16.18C156.665 16.0067 156.039 15.7 155.612 15.26C155.185 14.82 154.972 14.26 154.972 13.58C154.972 12.9667 155.139 12.4333 155.472 11.98C155.805 11.5267 156.272 11.18 156.872 10.94C157.472 10.6867 158.165 10.56 158.952 10.56C159.539 10.56 160.092 10.6333 160.612 10.78C161.132 10.9267 161.612 11.1467 162.052 11.44C162.225 11.5333 162.339 11.66 162.392 11.82C162.445 11.9667 162.452 12.1133 162.412 12.26C162.385 12.4067 162.319 12.54 162.212 12.66C162.105 12.7667 161.972 12.8333 161.812 12.86C161.665 12.8733 161.499 12.8333 161.312 12.74C160.912 12.4867 160.512 12.3067 160.112 12.2C159.725 12.0933 159.339 12.04 158.952 12.04C158.245 12.04 157.712 12.1733 157.352 12.44C157.005 12.6933 156.832 13.04 156.832 13.48C156.832 13.8133 156.939 14.0867 157.152 14.3C157.365 14.5133 157.699 14.6667 158.152 14.76L160.052 15.14C160.919 15.3133 161.572 15.6067 162.012 16.02C162.465 16.4333 162.692 16.9933 162.692 17.7C162.692 18.62 162.325 19.3467 161.592 19.88C160.859 20.4133 159.885 20.68 158.672 20.68ZM167.044 24.24C166.804 24.24 166.604 24.1733 166.444 24.04C166.298 23.92 166.211 23.7533 166.184 23.54C166.171 23.34 166.211 23.12 166.304 22.88L167.664 19.82V20.68L163.924 11.98C163.831 11.74 163.798 11.5133 163.824 11.3C163.851 11.0867 163.951 10.92 164.124 10.8C164.298 10.6667 164.531 10.6 164.824 10.6C165.078 10.6 165.278 10.66 165.424 10.78C165.571 10.9 165.704 11.1067 165.824 11.4L168.844 18.86H168.284L171.344 11.4C171.464 11.0933 171.604 10.8867 171.764 10.78C171.924 10.66 172.144 10.6 172.424 10.6C172.664 10.6 172.851 10.6667 172.984 10.8C173.131 10.92 173.218 11.0867 173.244 11.3C173.284 11.5 173.251 11.72 173.144 11.96L168.144 23.46C168.011 23.7667 167.858 23.9733 167.684 24.08C167.524 24.1867 167.311 24.24 167.044 24.24Z" fill="white"/>
<defs>
<clipPath id="clip0_223_3803">
<rect width="43" height="28" fill="white"/>
</clipPath>
</defs>
</svg>
